<?xml version="1.0" encoding="UTF-8"?>
<svg width="89px" height="132px" viewBox="0 0 89 132" version="1.1" xmlns="http://www.w3.org/2000/svg" xmlns:xlink="http://www.w3.org/1999/xlink">
    <!-- Generator: Sketch 49.3 (51167) - http://www.bohemiancoding.com/sketch -->
    <title>Group 8</title>
    <desc>Created with Sketch.</desc>
    <defs>
        <polygon id="path-1" points="0 0.44665 0.91115 0.44665 0.91115 1.98040121 0 1.98040121"></polygon>
        <polygon id="path-3" points="0 0.44665 0.91115 0.44665 0.91115 1.98040121 0 1.98040121"></polygon>
    </defs>
    <g id="Page-1" stroke="none" stroke-width="1" fill="none" fill-rule="evenodd">
        <g id="Quiz-2" transform="translate(-67.000000, -372.000000)">
            <g id="Group-8" transform="translate(40.000000, 373.000000)">
                <g id="Page-1" transform="translate(39.000000, 10.000000)">
                    <path d="M40.0338047,56.1914251 C39.9932603,56.8644251 40.8405709,56.5084251 41,56.5864251 C40.7519228,55.5194251 39.8111538,56.2454251 40.0338047,56.1914251" id="Fill-1" fill="#FF2020"></path>
                    <polygon id="Fill-3" fill="#FF2020" points="38.6035141 49.8869258 39 50 38 49"></polygon>
                    <path d="M38.4580599,44 C37.3241793,44.6183387 38.7005351,46.2334771 38.3188114,47.3432587 L38.0612823,47.5313761 L39,48 C38.818278,46.6737164 38.1639714,44.9528315 38.4580599,44" id="Fill-5" fill="#FF2020"></path>
                    <path d="M40.6215343,41.0991828 C39.8005343,41.3539011 39.8615343,40.2843411 40.4055343,42 C40.4925343,41.9114581 40.5445343,41.8851522 40.6085343,41.8338236 C40.5875343,41.6785546 40.5795343,41.4642576 40.6215343,41.0991828" id="Fill-7" fill="#FF2020"></path>
                    <path d="M40,41.1949388 C40.099,42.3759388 40.675,40.3989388 40,41.1949388" id="Fill-9" fill="#FF2020"></path>
                    <path d="M40,39.3444361 L40.4703143,40 C40.7485448,39.8523274 40.7799767,39.2539547 41,39.4690615 C40.7252619,38.7887433 40.4487776,38.9402571 40,39.3444361" id="Fill-11" fill="#FF2020"></path>
                    <path d="M39,39 L39.348,39.795 C39.549,39.644 39.611,39.426 39,39" id="Fill-13" fill="#FF2020"></path>
                    <path d="M40,40 L39.3992901,39 C39.1243057,39.1427725 38.556332,39.1735782 39.6218965,39.4603081 C39.0981167,39.3927725 39.6079836,39.5781991 40,40" id="Fill-15" fill="#FF2020"></path>
                    <path d="M39.9547214,41 C39.6786263,41.36036 39.5128402,41.8156362 39,41.199485 C39.2541623,42.3887534 40.2185599,42.1953012 39.9547214,41" id="Fill-17" fill="#FF2020"></path>
                    <path d="M36.595,44.0015526 L36,44.5451053 L36.744,45 C36.375,44.7730168 37.264,43.9597765 36.595,44.0015526" id="Fill-19" fill="#FF2020"></path>
                    <path d="M40,34.0022399 C39.7364208,33.9684263 39.3281875,34.3273703 39,34.4095632 L39.3441967,35 C39.4985706,34.6764303 39.6180675,34.0703872 40,34.0022399" id="Fill-21" fill="#FF2020"></path>
                    <path d="M39.906,34.9824235 L39,34 C39.03,34.9122089 39.408,35.0590212 39.906,34.9824235" id="Fill-23" fill="#FF2020"></path>
                    <polygon id="Fill-25" fill="#FF2020" points="38.0281924 38.3300971 39 40 38 38"></polygon>
                    <polygon id="Fill-27" fill="#FF2020" points="40.3494983 30.4464501 41 31 40 30"></polygon>
                    <path d="M39.1085766,27.9307392 C39.5565693,28.2648371 39.6998175,27.2610157 40,27.6445152 C39.8512774,27.0017843 39.392792,26.4527637 39,26 C39.2682482,26.5205 39.3435219,27.1499892 39.1085766,27.9307392" id="Fill-29" fill="#FF2020"></path>
                    <path d="M39,26 C39.2624434,26.3422775 39.6063348,26.6426702 40,27 C39.7571644,26.6400524 39.4728507,26.3193717 39,26" id="Fill-31" fill="#FF2020"></path>
                    <path d="M39.0350584,32 C39.2479132,31.8908497 39.8472454,31.6836601 40,31 L39,31.545098 C39.0108514,31.6836601 39.0225376,31.8405229 39.0350584,32" id="Fill-33" fill="#FF2020"></path>
                    <path d="M39.06,32 L39.099,31.9819704 C39.05,31.4887315 39.015,31.1461687 39,31 C39.008,31.1262073 39.027,31.4269156 39.06,32" id="Fill-35" fill="#FF2020"></path>
                    <path d="M39.1128977,31.175 C39.1088977,31.111 39.1068977,31.063 39.1028977,31 C38.9838977,31.079 38.9448977,31.123 39.1128977,31.175" id="Fill-37" fill="#FF2020"></path>
                    <path d="M39,35 C38.7037037,34.4673059 38.3605442,33.3530965 38,34.4987685 C38.3492063,34.8633005 38.5544218,34.2042136 39,35" id="Fill-39" fill="#FF2020"></path>
                    <path d="M38.1086957,33 L38,33.977131 C38.2792642,33.9443867 38.666388,33.7489605 39,34 L38.1086957,33 Z" id="Fill-41" fill="#FF2020"></path>
                    <polygon id="Fill-43" fill="#FF2020" points="38 31 38.485 31.871 38.532 31.172"></polygon>
                    <path d="M38.9603244,27.5179065 C38.4099678,27.0913415 38.2321133,26.5783556 38.0015895,26 C37.9870863,26.6597907 38.0725786,27.3251213 38.2275334,27.9344998 C38.5412596,27.9777103 39.1626053,28.1887768 38.9603244,27.5179065" id="Fill-45" fill="#FF2020"></path>
                    <path d="M39.1653688,30.176 C39.1273688,30.122 39.1023688,30.05 39.0643688,30 C38.9753688,30.128 38.9533688,30.224 39.1653688,30.176" id="Fill-47" fill="#FF2020"></path>
                    <path d="M36.154,21 C36.102,21.08 36.053,21.153 36,21.235 C36.074,21.217 36.14,21.202 36.218,21.184 L36.154,21 Z" id="Fill-49" fill="#FF2020"></path>
                    <path d="M38.0371095,28.1231167 C37.9181095,28.564364 38.3011095,28.7888135 38.7641095,29 C38.5431095,28.6934224 38.3621095,28.3664404 38.2451095,28.0083414 C38.0561095,27.9894673 37.9351095,27.9930381 38.0371095,28.1231167" id="Fill-51" fill="#FF2020"></path>
                    <path d="M38.235,24 C38.115,24.3136161 38.048,24.6523437 38,25 C38.266,24.6830357 38.602,24.0396205 38.235,24" id="Fill-53" fill="#FF2020"></path>
                    <path d="M39,29.1121631 C39.026,29.1511631 39.056,29.1861631 39.075,29.2301631 C39.307,28.9181631 39.179,28.9701631 39,29.1121631" id="Fill-55" fill="#FF2020"></path>
                    <path d="M38.939,29.7511346 C38.692,29.4447806 38.329,29.2239032 38,29 C38.175,29.3706505 38.381,29.7102874 38.629,30 C38.705,29.9130106 38.825,29.8207262 38.939,29.7511346" id="Fill-57" fill="#FF2020"></path>
                    <path d="M31.2151319,21.1635274 C31.8554984,20.9810383 32.8730443,21.7330989 32.5880644,22.8223788 C33.4111533,23.4762552 35.2093205,22.2008879 36,21.0123956 C35.720608,21.0884756 35.471949,21.1804912 34.713679,20.4536192 C34.5253688,20.8864524 34.8014081,22.6769016 33.9179705,22.1551371 C33.0870586,21.1388528 33.7106616,21.1424512 33.7799508,20.4603019 C33.2390478,21.2231576 31.9951945,19.4692063 31,20.1683194 L31.8554984,20.9856648 C31.6906571,21.0725399 31.2453062,20.8304206 31.2151319,21.1635274" id="Fill-59" fill="#FF2020"></path>
                    <path d="M36.5186528,22.6659723 L36.7367876,23 C36.6699482,22.5567244 36.780829,22.1714565 37,21.4864822 C36.4699482,21.0103355 36.2072539,20.9750475 36,21.0098521 C36.2207254,21.5889624 36.4419689,22.1487368 36.6549223,22.7583012 L36.5186528,22.6659723 Z" id="Fill-61" fill="#FF2020"></path>
                    <path d="M37.6310498,24.8973919 C37.2976385,24.8160604 37.0063128,24.544269 36.7411737,24.4037406 C36.4652794,24.2652711 36.2211831,24.2580645 36,24.658545 C36.3338789,25.8260124 36.6916063,25.3349348 37.1255553,26 C36.491466,24.0444406 37.5959785,26.4946809 37.5683891,24.9339396 C37.7619827,25.3040494 37.8989946,25.6772478 37.9831658,25.9984557 C37.9892448,25.6257721 37.971943,25.2258065 38,24.8531229 C37.99018,24.8762869 37.9836334,24.8927591 37.9752163,24.9123198 L37.9798924,24.9215854 L37.9700725,24.9221002 C37.9195698,25.0348318 37.882628,25.0770419 37.8999299,24.962766 C37.8910451,24.9581332 37.8821604,24.9334248 37.8770166,24.9231297 C37.7928455,24.9334248 37.7124152,24.9164379 37.6343231,24.8963624 C37.6048632,24.2596088 37.7615151,24.7532601 37.8770166,24.9231297 C37.9074117,24.9210707 37.9382745,24.9293068 37.9700725,24.9221002 C37.9724106,24.9190117 37.9738134,24.9159231 37.9752163,24.9123198 C37.8321253,24.5792725 37.7030629,24.2431366 37.5459434,23.9229581 C37.3883563,23.6115305 37.2279635,23.2650995 37.0727145,23 C37.0989011,23.1992107 37.1596914,23.4442347 37.2574234,23.7505148 C37.3626374,24.0506177 37.4795417,24.4207275 37.6310498,24.8973919" id="Fill-63" fill="#FF2020"></path>
                    <path d="M35,34.3062147 C35.106,34.1902147 35.198,34.1882147 35.292,34.1732147 C35.118,33.9592147 35.005,33.8822147 35,34.3062147" id="Fill-65" fill="#FF2020"></path>
                    <path d="M36.2288439,33.9442652 C36.3504172,34.0574875 36.6650775,34.1391019 36.6191895,34.5339645 C36.4171633,34.8854253 36.2508939,34.5533067 36,34.5853863 C36.2228844,34.8071133 36.6209774,35.3774704 36.932062,34.6184095 L36.8170441,34.5070742 C37.0315852,33.8300994 37.8766389,32.8997898 38,33.0087662 C37.3313468,33.2536094 36.8581645,33.46024 36.2288439,33.9442652" id="Fill-67" fill="#FF2020"></path>
                    <path d="M37,30 L36.4495648,28 L36,29.1664355 L36.3338454,29.0429958 C36.3297491,30.2337032 36.7214542,29.9022191 37,30" id="Fill-69" fill="#FF2020"></path>
                    <polygon id="Fill-71" fill="#FF2020" points="36.4232179 21 37 20.8464567 36 20"></polygon>
                    <polygon id="Fill-73" fill="#FF2020" points="35 20 36 19.655 35.0680628 19"></polygon>
                    <path d="M38,66.257 C38.079,66.177 38.152,66.091 38.221,66 C38.123,66.049 38.054,66.141 38,66.257" id="Fill-75" fill="#FF2020"></path>
                    <path d="M36.277,64 L36,64.551 C36.215,64.311 36.333,64.092 36.277,64" id="Fill-77" fill="#FF2020"></path>
                    <g id="Group-81" transform="translate(0.000000, 20.000000)">
                        <mask id="mask-2" fill="white">
                            <use xlink:href="#path-1"></use>
                        </mask>
                        <g id="Clip-80"></g>
                        <path d="M0.91115,0.44665 C0.38165,1.19065 -0.41135,2.11665 0.25365,1.96365 L0.88115,1.68765 C0.72865,1.18865 0.78865,0.78115 0.91115,0.44665" id="Fill-79" fill="#FF2020" mask="url(#mask-2)"></path>
                    </g>
                    <path d="M17.9406667,49.529 C17.96,49.358 17.9806667,49.178 18,49 C17.6406667,49.038 17.304,49.072 17,49.104 C17.284,49.232 17.604,49.377 17.9406667,49.529" id="Fill-82" fill="#FF2020"></path>
                    <path d="M21,48 L21.328,49 C21.336,48.7380819 21.237,48.4127874 21,48" id="Fill-84" fill="#FF2020"></path>
                    <path d="M45.8472232,56 L45.3812232,55 C44.4782232,55.7581158 45.4052232,55.6861871 45.8472232,56" id="Fill-86" fill="#FF2020"></path>
                    <path d="M23,0.859490719 C22.2643541,0.357775956 21.5950957,0.149116462 21,0 C21.4814593,0.284771021 21.8744019,0.609927751 22.1949761,0.800465453 C22.5143541,1.01326707 22.7679426,1.08989636 23,0.859490719" id="Fill-88" fill="#FF2020"></path>
                    <path d="M36.0078622,74.4108113 C36.6258622,74.6998113 36.8958622,74.5948113 36.9158622,74.2028113 C36.3188622,73.9168113 35.9398622,73.8888113 36.0078622,74.4108113" id="Fill-90" fill="#FF2020"></path>
                    <path d="M19,0.445256603 C19.1190019,0.586256603 19.2356046,0.662256603 19.3550864,0.783256603 C19.8603647,0.626256603 20.3886756,0.601256603 21,0.891256603 C20.4385797,0.140256603 19.696737,-0.436743397 19,0.445256603" id="Fill-92" fill="#FF2020"></path>
                    <path d="M48.202,14.093 C48.136,14.055 48.068,14.05 48,14 C48.046,14.171 48.115,14.157 48.202,14.093" id="Fill-94" fill="#FF2020"></path>
                    <path d="M36.1855124,26 C36.0835124,25.7645182 36.0685124,25.3726867 36.0535124,25 C35.9695124,25.1805999 35.9645124,25.4894703 36.1855124,26" id="Fill-96" fill="#FF2020"></path>
                    <path d="M33,11 C33.459,11.703 33.188,11.052 33,11" id="Fill-98" fill="#FF2020"></path>
                    <path d="M31.712,14.0827859 C31.504,13.9927859 31.279,13.9577859 31,14.0727859 C31.312,13.9937859 31.54,14.0067859 31.712,14.0827859" id="Fill-100" fill="#FF2020"></path>
                    <path d="M14.066,5 C14.044,5.005 14.025,5.009 14,5.015 C14.296,5.194 14.244,5.159 14.066,5" id="Fill-102" fill="#FF2020"></path>
                    <path d="M33.1429483,12 C33.1499483,11.688057 33.0969483,11.3493761 33.0019483,11 C32.9899483,11.1773619 33.0329483,11.4848485 33.1429483,12" id="Fill-104" fill="#FF2020"></path>
                    <path d="M33,11 C33.075,11.282 33.146,11.498 33.21,11.705 C33.45,11.701 33.53,11.556 33,11" id="Fill-106" fill="#FF2020"></path>
                    <path d="M33,11 C33.237,11.3291039 33.388,11.6645519 33.501,12 C33.504,11.853291 33.537,11.777954 33.597,11.7930214 C33.466,11.628073 33.284,11.3949247 33,11" id="Fill-108" fill="#FF2020"></path>
                    <path d="M60.1269186,33.6457559 C60.1779186,33.6067559 60.2169186,33.5567559 60.2839186,33.5167559 C59.9339186,32.6517559 59.9399186,32.9967559 60.1269186,33.6457559" id="Fill-110" fill="#FF2020"></path>
                    <path d="M9.091,30.054 C9.067,30.027 9.028,30.023 9.001,30 C9.001,30.038 9,30.085 9,30.119 L9.091,30.054 Z" id="Fill-112" fill="#FF2020"></path>
                    <path d="M12,30.8672489 C10.8734694,30.7065502 10.8145773,30.4030568 10.8134111,30 C10.2046647,30.3275109 9.59708455,30.6615721 9,31 C10.0087464,30.9694323 11.0034985,30.9257642 12,30.8672489" id="Fill-114" fill="#FF2020"></path>
                    <path d="M65.4643168,29.1709721 L65.2404867,29.4422162 C65.1066917,28.7635962 65.2656362,28.9634602 65.4643168,29.1709721 M30.354182,9.03823929 C30.5151384,9.11522774 30.5981316,9.05659415 30.6559753,8.95156356 C30.445223,8.95462271 30.2721948,8.6757308 30.1323639,8.3239293 C30.0191914,8.51206662 29.9970599,8.74150238 30.354182,9.03823929 M29.8934441,7.60146159 C29.8763425,7.59585316 29.8637678,7.59228416 29.8451572,7.59024473 C29.7063323,6.8167913 29.7460684,7.09772264 29.8934441,7.60146159 M18.2552868,46.7600272 C18.5766967,46.7880693 18.6767915,47.1317131 18.6858453,47.6048606 C18.472578,47.4218219 18.3111185,47.1515976 18.2552868,46.7600272 M34.5657081,62.9077158 C34.8795732,63.0117267 35.6234938,63.0984024 35.4645493,63.557274 C34.6356236,63.907036 34.7412512,63.4374575 34.5657081,62.9077158 M39.6760754,63.4726377 L39.1268115,63.6623046 C39.016657,63.7153297 38.9975434,63.6617947 38.9361788,63.6577158 C38.8843709,63.6424201 38.834575,63.6255948 38.7852821,63.6067301 C38.7309593,63.5042488 38.6781454,63.4063562 38.6283495,63.3145819 C38.654002,63.1524473 38.6861933,63.0076479 38.7183846,62.8776343 C38.7837731,62.6186268 38.8531856,62.421312 38.881353,62.2780421 C38.9391967,61.9925221 38.834072,61.9236914 38.2148927,62.0088375 C38.5805656,62.374915 38.6147688,62.7522094 38.4829857,63.1361319 C38.5076322,63.3359959 38.4930455,63.3946295 38.4377167,63.4996601 C38.3426518,63.6898368 38.2521138,63.8744052 38.6026971,65.0460571 C38.4915366,64.9537729 38.3914418,64.8482325 38.3014067,64.7299456 C38.3481847,64.707002 38.3149874,64.5596533 38.3587475,64.5407886 C38.0755647,64.1114888 38.1761625,64.5652617 38.1967851,65.2438817 C38.2355152,65.9021074 38.1952761,66.7826309 37.8929798,66.9060163 C37.8869439,66.9039769 37.881411,66.9090755 37.8758781,66.9004079 C37.6651258,66.4537729 37.5841446,65.9551326 37.699329,65.7323249 C37.5781087,65.8521414 37.43023,65.9444256 37.2561958,66.0101971 C37.1369874,65.8312373 37.2491539,65.4330387 37.3467338,65.5880354 C37.1460412,65.4626105 36.9327739,65.3229096 36.7069319,65.1689327 L36.7366083,65.1118287 C36.5318918,65.3667573 36.0530463,65.5921142 35.7914921,65.6288239 C35.751756,65.1633243 36.0163281,65.5452073 36.1003273,65.2627464 C35.8759942,65.271414 35.6300327,65.2576479 35.3619396,65.2199184 C35.4464417,64.9221618 35.6863674,64.7916383 35.8966168,64.7401428 C36.1103871,64.692726 36.2985049,64.7268865 36.3945758,64.8813732 C37.1898013,62.7425221 36.1989131,65.4279402 35.3111377,62.775153 L36.2170207,63.3365058 C36.5852086,62.0328008 35.7195647,61.7503399 35.4409088,60.3961591 C35.3533888,60.8616587 35.7452171,63.3742352 34.5556483,62.8771244 C34.434931,62.5253229 34.1839395,62.153637 33.4440429,61.9792658 C33.9646364,61.4617607 33.4038037,61.1354521 32.8344203,60.596533 L33.5677781,59.9581917 C32.7911632,59.5390891 32.4808191,59.9311693 31.8254245,59.871516 C31.2500052,59.1169273 31.6609472,58.4546227 31.9687764,57.8560503 C31.0654083,56.6461591 31.7957482,59.4529232 30.4608156,58.2685248 C29.8853963,57.0902447 29.0011418,56.7211081 27.5791922,55.9940517 C27.2426926,55.1150578 28.1194023,55.707002 28.1148754,55.2853501 L27.0259044,55.2292658 C26.9132349,55.0752889 27.1305261,54.9610809 27.2401776,54.903467 C26.5847831,54.6153977 26.4851913,55.5158056 25.6125055,54.914174 C24.6276533,55.410775 25.3926994,52.2868797 23.6734833,52.1079198 C23.6815311,51.6883073 24.2217412,51.8361659 24.4450683,51.5175051 C22.7208223,50.7047927 23.0568189,50.7506798 21.329052,50.3203603 L21.057438,48.9646499 C21.0468752,50.1281441 19.6681826,49.7773623 18.4926975,49.403637 C18.4147342,49.8778042 18.3438128,50.2902787 18.3433098,50.5299116 L16.9329289,49.5540449 C16.9364498,49.2986064 17.3011168,49.2251869 17.7829802,49.1869477 C17.6522031,49.1481985 17.5249469,49.1135282 17.4173072,49.0931339 C17.3423619,48.4099252 17.971601,48.3084636 18.651642,48.3018355 C18.6209597,48.5756288 18.5802176,48.85707 18.5374635,49.1339225 C19.2456719,49.0870156 19.9815447,48.9728076 20.374882,48.5526852 C20.2244883,48.5399388 20.0263107,48.4415364 19.8492586,48.3003059 C20.0378795,48.2829708 20.1897821,48.246261 20.2365601,48.1478586 C20.283841,48.0412984 20.013736,48.0433379 19.6591288,47.9887831 L20.2878649,47.0338205 L19.8955336,47.228586 C19.6415242,46.5433379 19.4262449,45.8387152 19.1928581,45.149898 C18.3151424,44.8832427 17.3654994,44.7175391 16.4254131,44.3917403 C15.479291,44.0705303 14.5205941,43.6024813 13.6806026,42.7092114 C14.6654549,42.7652957 14.8218845,42.089225 15.6176129,41.5916044 C15.385232,42.139191 15.7202227,42.4695785 16.1874994,42.7912984 C16.6603089,43.1109789 17.2508179,43.4281101 17.518408,43.9889531 C17.2377402,43.403637 17.6828854,43.2593474 17.9016856,43.300136 C17.248806,42.8805235 16.5707769,42.4680489 15.930975,42.024983 C16.5919024,41.6313732 16.1532961,41.3132223 16.1060152,40.6636642 C15.0779058,41.871516 14.3707034,39.8662475 13.527694,39.3461931 C13.9305881,39.0280421 14.481361,38.9316791 14.9415958,39.9157036 C15.2886582,38.292828 12.622314,39.5562542 12.8370902,38.0282121 C12.9769211,38.253569 12.9915078,38.4131543 13.2656368,38.3682869 C12.5539075,38.075119 12.120331,36.5649218 12.6776427,36.6546567 L12.8169707,36.8779742 C12.4558246,36.0734194 11.7979151,34.9196125 11.1289399,33.9911625 C10.4524198,33.0667913 9.72107394,32.3662475 9.08630193,32.5197145 C9.23015676,32.4340585 10.579676,32.0593134 10.8588349,32.03586 C9.13056496,31.7508498 7.39324127,31.378654 5.64887573,30.8779742 C6.21322928,30.8096533 7.00694578,30.2692046 7.80317723,29.9046567 C8.59940867,29.5380693 9.38658631,29.3376954 9.93635319,29.8587695 C9.92880836,29.4264106 9.92126352,28.9134942 9.27693473,28.2654657 C9.21003721,28.5673012 8.01996545,29.4697485 7.78758457,29.1444596 C8.59991166,27.7372536 8.15074256,28.2195785 8.77796973,26.7093814 C8.66831815,27.1651937 6.88220453,27.2503399 6.75444535,26.5732495 C7.03159224,26.6023114 8.38563838,26.0654317 8.62154018,26.2387831 C7.93345135,25.8915704 7.25944622,25.5117267 6.59097396,25.0951734 C6.97374852,25.4311693 8.00789371,24.8382053 8.40827288,24.4109449 C8.10547356,24.6327328 8.18595179,23.1057104 7.98978611,22.7330048 C7.8906973,22.9629504 7.78205169,23.1974847 7.69050771,23.4350782 C7.68698679,22.5540449 7.05925663,22.2037729 6.40486806,21.8020054 C5.76255122,21.4089055 5.07949228,20.9638001 5.1333121,20.0022094 C5.4869133,20.2520394 7.28459566,20.5232835 7.5094317,19.6743712 C7.09195091,19.4668593 6.04171007,18.9804555 5.09910885,18.2294358 C4.13437612,17.4870836 3.28331889,16.4581917 3.14902085,15.4456152 C3.3326118,15.3609789 3.52123264,15.2804215 3.71186544,15.2029232 C3.64345895,14.6961251 3.57052556,14.1755608 3.54336415,13.6509177 C4.02774247,14.289259 4.78323182,15.3732155 5.60511569,16.3618287 C6.40637703,17.3585996 7.27906278,18.2610469 7.76545306,18.8346363 C8.22518492,18.24983 8.34690824,18.7122706 8.42386554,17.8057444 C8.92987238,17.5656016 9.04807478,18.3793338 9.0651764,18.6337525 C9.21909101,17.9688987 9.43940015,17.3310673 9.66624815,16.71414 C9.1602413,16.6458192 9.00733268,16.2165194 8.87655556,15.7637661 C8.765898,15.3227396 8.68491678,14.8633583 8.27196289,14.7649558 C8.36400986,15.6276343 8.51893044,16.460741 8.73169475,17.2622366 C8.22669389,17.2194086 7.57381428,16.7692046 7.1377229,16.0712101 C6.71521222,15.3874915 6.51804056,14.4386472 6.90986892,13.6692726 C7.17293212,13.5372196 7.56526347,13.7824609 7.93848124,14.053705 C8.31119602,14.3269884 8.66630619,14.6232155 8.83128656,14.6650238 C8.70453335,14.5192046 8.65775538,14.1169273 8.7115752,13.7564582 C8.7704249,13.3985384 8.88309441,13.0630523 9.0334881,13.0615228 C9.10038562,13.3307274 9.19142662,13.6045207 9.27291082,13.8640381 C9.60085959,13.5667913 9.43537624,13.1374915 9.36998768,12.6934058 C9.32924558,12.4680489 9.3237127,12.2508498 9.41223875,12.0662814 C9.50227376,11.8847723 9.66323021,11.7154997 10.0087836,11.6548266 C10.1315129,11.5334806 10.5384309,11.5130863 10.8477691,11.4916723 C11.169682,11.4794358 11.3930091,11.4539429 11.1747119,11.242862 C9.97005345,10.8920802 6.90886295,8.98776343 6.53061529,8.03433039 C6.62266226,8.00016995 7.19305168,7.64938817 7.88717637,7.40873555 C8.5571576,7.1410605 9.3282396,6.99371176 9.68737368,7.03806934 C10.2456914,7.14513936 10.399103,7.73810333 10.5857119,8.29843644 C10.763267,8.86233855 10.9614446,9.38290279 11.4030688,9.50220938 C11.2224958,9.28908906 11.215957,8.81492182 11.2421124,8.63443236 C11.6741799,8.58956492 11.7018443,9.37933379 12.1867256,8.81543168 C11.6445035,7.89157036 13.5221611,7.99099252 11.9573626,7.88953093 C12.4477768,7.18847723 12.7656658,7.59024473 13.5468076,7.1303535 C13.2686547,6.88970088 13.1967273,6.29265806 13.3380672,5.6446295 C13.4049647,5.31373215 13.5362448,5.00271924 13.7012252,4.72127804 C13.8672115,4.44544528 14.0623712,4.18694765 14.2761415,4.0564242 C14.3012909,4.32460911 14.6071082,4.59432359 14.7434182,4.71872876 C15.6543311,4.48776343 16.3932218,4.53212101 17.0833226,4.58208702 C17.429882,4.61012916 17.7688965,4.67539089 18.1219947,4.70139361 C18.4740869,4.76206662 18.8437838,4.79265806 19.2542227,4.83905506 C19.3920417,5.11233855 20.0932082,5.50798776 19.7033918,5.91077498 C19.9443235,5.75118967 20.2058777,5.46872876 20.691262,5.54316791 C21.0146839,6.11573759 20.7501117,6.04945615 20.464917,6.04945615 C20.1706685,6.04486744 19.8739051,6.05914344 20.0756036,6.65975527 C20.2451109,6.06628144 21.3924286,6.10707002 22.1599897,6.08973487 C22.2092826,5.85673012 22.1418821,5.68745751 22.0005422,5.56560163 C21.9296207,5.50441876 21.8410947,5.45547247 21.7404969,5.41672332 C21.6363782,5.3871516 21.5191818,5.37083617 21.3964525,5.36216859 C20.9085533,5.30659415 20.3230742,5.48147519 19.9624311,5.59313392 C20.0720827,4.95938137 20.4855396,4.37100612 21.2168855,3.95190347 C21.5740076,3.76937458 22.0121109,3.62202583 22.5035311,3.55676411 C22.9818735,3.52719239 23.5417002,3.51087695 24.0874432,3.67454113 C24.9440333,3.96312033 24.9742126,4.2889191 24.8565132,4.47093814 C24.7368018,4.66162475 24.4702177,4.76767505 24.638216,4.77583277 C24.8313638,4.93745751 25.0390982,5.08735554 25.2211802,5.20411285 C25.7126003,5.59721278 26.1652903,5.83123725 26.5324722,6.00458872 C26.8996542,6.15958532 27.2939975,6.2503399 27.5998147,6.34721278 C28.2350897,6.54401768 28.813527,6.86369816 29.0293092,8.05268525 C28.8291196,9.30387492 27.6692272,8.9296397 27.2779018,9.41961251 C26.3941503,8.55081577 26.7331648,7.55302515 26.1879248,6.86522774 C26.3121631,7.2256968 26.3785576,7.58922502 26.4711076,7.9435758 C26.2492895,7.85791978 25.9847173,7.67946975 25.7689351,7.46023114 C25.5360512,7.25118967 25.3514543,7.00645819 25.3016584,6.75152957 C25.275503,7.29656696 25.9424663,8.21380014 26.5918249,9.39004079 C27.2582852,10.5448674 27.9549249,11.8888511 28.1425397,12.992692 C28.5544877,13.2002039 29.1037516,13.6544867 29.2526363,13.2272264 L28.8432033,12.6755608 C29.1369488,11.8082937 30.2309497,13.3970088 30.1087234,12.4838545 C30.9381521,13.0870156 32.0462367,13.6978246 32.2720787,15.0382393 L31.5422418,15.664344 C31.7736167,15.5220938 31.6785518,14.6558464 31.2640889,14.4544528 C31.8696876,14.764446 30.988954,16.7870496 32.3248925,16.8008158 L32.5235731,15.700034 C33.3338883,16.3342964 34.708557,16.9695785 34.9112615,18.1560163 C35.5294349,17.2933379 34.708557,17.957172 35.3448379,16.7523793 C34.4374459,17.9638001 34.1542632,14.0169952 33.3685945,15.6653637 C34.1240839,14.3601292 33.2282606,14.1118287 33.6794417,12.6332427 C33.4219113,12.8025153 33.3313733,13.2522094 33.0320949,12.3003059 C32.9325031,12.3008158 32.7851274,12.2584976 32.6966013,12.2289259 C32.6905655,12.1983345 32.6905655,12.1860979 32.6875475,12.1590755 C32.6845296,12.1825289 32.6820147,12.2003739 32.6789967,12.2243372 C32.619644,12.207002 32.6095843,12.2075119 32.6769848,12.2477906 C32.6608891,12.5190347 32.6010334,12.7617267 32.482831,12.9080557 C31.6488754,12.7877294 30.9597806,11.3947995 30.3954271,11.1011217 C30.2485543,10.517845 30.8199497,11.1495581 30.9567627,10.7131203 L30.1057055,10.2761727 C30.671568,9.88307274 30.3385893,8.33871516 31.3566389,9.3767845 C31.1725449,9.00254929 30.9633016,8.6232155 30.761603,8.24541128 C30.7409805,7.81968049 30.6338438,7.35825969 30.4306363,6.94017675 C30.2259198,6.52056424 29.9950479,6.17641061 29.6600573,5.95003399 C29.5312921,5.62576479 29.1344339,5.37797417 28.8718737,5.24184228 C28.5957328,5.09755269 28.4287404,5.04350782 28.8517541,5.15210741 L27.8945662,4.27005438 C27.5067618,3.95802175 27.0978318,3.65873555 26.6959436,3.38341264 L26.63307,3.34874235 L26.7175722,3.19833447 C26.5717054,3.08259687 26.4177908,2.96940857 26.2648822,2.86488783 C26.1300811,2.77260367 25.9917592,2.68337865 25.8514253,2.59823249 C25.5727694,2.42233175 25.2599103,2.30761387 24.957111,2.17556084 C24.3515123,1.90380693 23.6981297,1.76461591 23.0683876,1.57545887 C21.780736,1.25475867 20.5539461,0.993201903 19.2084507,0.26971448 C18.3709742,0.40278722 17.5601561,0.579197825 16.2217026,0.555234534 L15.8806761,0 C15.6231458,0.078518015 15.2997239,0.130013596 14.9461227,0.168762746 C14.5935275,0.207002039 14.206226,0.214649898 13.8491039,0.276852481 C13.4894668,0.329877634 13.1484404,0.393099932 12.8838682,0.489972808 C12.6238229,0.601631543 12.439729,0.741332427 12.3874181,0.926410605 C11.5811269,0.363018355 10.2693318,0.822399728 9.07020629,1.65346703 C7.87057774,2.48810333 6.80373826,3.70819171 6.07289538,4.27005438 L6.56230359,4.86913664 C5.66195344,5.73997281 5.03875018,6.81781101 4.50155803,8.24184228 L5.1197314,8.53806934 C5.02567247,9.21210061 4.53475529,9.81118287 3.99152727,10.5224337 C3.71538636,10.8742352 3.44930523,11.2591774 3.18573904,11.6655337 C2.95285518,12.0800476 2.71946832,12.5185248 2.59422408,12.9881033 C2.37944782,12.7795717 2.61585261,12.3263086 2.88394569,12.053535 C1.7451788,12.8851122 1.66419759,14.235724 1.75926249,15.4619307 C1.83923773,16.7095513 2.10280392,17.8470428 1.48714549,18.839225 C1.70846061,19.3674371 1.6048449,19.7279062 1.4413735,20.089395 C1.43986454,20.0414684 1.42728981,19.9986404 1.40616428,19.9614208 C1.39761347,20.0139361 1.3961045,20.0924541 1.39761347,20.1735214 C1.28242901,20.4009177 1.14461005,20.6395309 1.04149732,20.9005778 C1.20044182,20.6767505 1.33876377,20.467709 1.40012841,20.2872196 C1.40566129,20.6854181 1.51732483,21.2890891 1.71852039,21.8626785 L1.01131799,22.1660435 C1.02540167,22.2134602 1.02741363,22.2516995 1.04451525,22.3006458 C0.830744967,22.9058464 1.42879878,22.7258668 1.94587138,22.3776343 C2.09224115,22.653467 2.25722151,22.9002379 2.45338719,23.0791978 C1.8995964,23.3698165 2.04747514,23.7348742 2.18780904,24.1101292 C2.33669376,24.4858939 2.48658446,24.8672672 1.92424286,25.2935078 C2.26426336,25.4235214 2.50670401,26.1021414 2.86835304,26.7231475 C3.21793033,27.3497621 3.68269208,27.9121346 4.33406272,27.8652277 C4.17863915,27.9299796 4.14544188,28.1063902 4.05641284,27.8290279 C4.07904734,28.4469748 4.12431634,29.0746091 4.64038297,29.4621006 L3.85119337,30.0112169 C4.38234966,30.2946975 4.92758963,30.5531951 5.46377581,30.8030252 C5.22133516,31.7360639 5.05635479,32.1837186 4.09514299,31.710571 C4.96028391,32.4029572 5.20825744,32.7042828 5.44063832,32.9852141 C5.66899528,33.2641061 5.89483731,33.5098572 6.7157152,33.9932019 L6.14281084,34.1843984 C6.40939496,34.6957852 7.52150344,35.1403807 7.2373147,35.6675731 C7.01650257,36.4955812 7.71163325,37.9134942 8.59538476,39.4823249 C9.02191935,40.2797417 9.5143455,41.1062203 9.94641297,41.9444256 C10.3674147,42.7912984 10.7516982,43.6325629 10.9800552,44.4549626 C12.0997085,42.9386472 11.1470475,46.1624745 12.3542209,45.4869137 C12.1183191,45.8789939 12.1832046,46.3863018 11.5861568,46.1640041 C12.8652576,47.2775323 12.4668904,48.6082597 14.0749459,48.8290279 C13.8511159,49.2328348 13.3752884,48.9121346 13.2761995,49.1956152 C13.4275992,49.2491502 13.8777743,49.4005778 13.7806974,49.6896669 C13.6826146,49.9756968 13.3571808,49.7064922 13.0558904,49.603501 C14.119209,50.9316791 15.2373533,50.2780421 16.2669716,49.6295037 C16.3283362,50.6466689 16.6532671,50.9352481 17.6421433,50.9184228 C17.5113662,51.3956492 17.4892347,52.0452073 16.74632,51.3145819 C17.0395626,51.8229096 18.517344,54.4649898 19.2934559,53.8883413 C19.2164986,54.1911965 19.7557027,54.5577838 19.9377847,54.6021414 C20.7299922,55.6310333 20.7284832,55.7870496 21.6303423,56.6889871 L21.5181758,56.317811 C22.7243432,55.9226717 22.4044423,56.9413664 23.1805542,57.621516 L23.0719086,57.6796397 C23.9989171,60.0081577 24.0396592,58.1619646 24.8710999,60.5440177 L25.320269,59.9541128 C26.6089266,59.0440177 26.0224415,62.0960231 27.3729667,62.6701224 L27.3437934,62.0297417 C28.2275449,62.1908566 27.2024535,64.9960911 27.5696354,65.6752209 C27.5822101,65.8878314 27.2386687,65.6415704 27.0128267,65.5477566 C27.676772,67.5989123 27.8694168,65.0669613 29.0162315,65.953603 C28.8311316,66.5052685 27.8442673,66.6204963 28.4438301,67.3888511 C28.4619377,67.7080218 29.2430795,67.9292998 30.0488677,68.2617267 C30.4512588,68.4294697 30.8586799,68.6283141 31.1790838,68.8873215 C31.2223408,68.9230116 31.2500052,68.9454453 31.3023161,68.9954113 L31.4647815,69.1595853 C31.5699062,69.2707342 31.66648,69.3859619 31.7565151,69.5057784 C31.9370881,69.746431 32.0844638,70.0064582 32.1936124,70.2950374 C32.0990505,69.6296737 32.0945236,69.057104 32.9259643,69.4828348 C33.4581265,69.9279402 33.937978,70.9573419 34.569732,71.9434058 C35.1843845,72.9126445 35.9353469,73.8186608 36.4956766,73.4979606 C36.611364,73.7712441 36.6495912,73.9588715 36.6430523,74.092964 C37.0238149,74.2780421 37.5851505,74.6777702 38.1112769,75 C38.7309593,74.0098572 39.287265,73.0090075 39.423575,72.2814412 C39.9979883,73.5382393 41.194096,71.6961251 42.0265426,70.2282461 C42.8891686,68.7348742 43.4525162,67.5224337 44.3282199,68.2816111 L45.7899056,66.3614888 L45.9292336,66.564412 C47.0358092,65.4789259 46.9638817,64.699864 46.8778706,63.9187627 C47.222921,63.7438817 47.22443,64.0849762 47.2993753,64.1859279 C49.085489,62.739463 49.1513805,62.4773963 49.4204796,60.2707342 L50.1306999,60.5837865 C50.1176222,60.2447315 50.8414232,59.7726037 51.6582772,59.0909245 C52.4786521,58.4158736 53.3533499,57.4828348 53.6596701,56.3208702 C53.7160049,56.3886812 53.8065429,56.5120666 53.7879323,56.7190687 C54.1485753,55.4163834 55.4467897,54.4869137 56.3964328,53.5130863 C56.8747752,53.0317811 57.2867231,52.564242 57.4506975,52.0650918 C57.611654,51.5628824 57.5397265,51.0453773 57.0769768,50.4875935 C57.1695267,49.8874915 57.2731424,49.3011557 57.3485908,48.7020734 C56.0810587,50.4442556 56.4955216,47.8271584 55.657542,48.3518015 C55.9346889,47.5615228 57.4164943,46.8798436 57.0462944,47.8531611 L56.8496258,47.9265806 C57.8973517,48.9722978 58.5839315,45.8422842 59.3836839,46.3327668 C61.2784431,42.4879334 63.5750905,38.8740653 64.7364919,34.8059143 L63.5469231,34.9772264 C63.6932929,34.5239633 63.8346327,34.0676411 63.959374,33.6046907 C64.2948676,33.2982665 64.9180709,33.3013256 64.6338821,34.3118627 C65.000058,34.1211761 64.9749086,33.6556764 64.8260239,33.2406526 C64.6731153,32.8220598 64.3874176,32.4503739 64.2742451,32.4126445 C64.6897139,31.4673691 64.9693757,31.710571 65.1605115,32.1363018 C65.3506413,32.5599932 65.4512391,33.1621346 65.5266874,32.8506118 L65.6157165,31.9818151 L65.4512391,32.1495581 C65.1298292,31.3720258 64.6796541,31.2404827 64.9044902,30.0050986 C65.2218762,29.2413324 65.6308061,29.6787899 65.7117874,29.3672672 C65.7892476,29.378484 65.8425645,29.2744731 65.7892476,28.8783141 L65.9144919,27.9299796 L66,26.9688987 C65.7002186,27.2171992 65.3999342,27.4583617 65.1001528,27.6913664 C64.7083245,26.8419443 65.2027626,25.9476547 64.1932638,26.7720938 C64.9688727,26.1847383 65.1258053,24.4048266 64.8758198,22.6932359 C64.6575226,20.9745071 64.0287865,19.3995581 64.1258633,18.9401768 C63.1198855,17.992862 62.7476737,16.9654997 62.0243757,15.6235554 C62.055058,16.0523453 61.3196882,16.6932359 60.7945678,15.6230455 C61.7653364,15.2381033 61.6154457,14.6410605 61.2598325,13.8992182 C61.0681937,13.5458872 60.8156933,13.1767505 60.6371323,12.7734534 C60.4595772,12.3681169 60.3091835,11.975017 60.3630033,11.5074779 C60.3730631,12.21414 59.6769264,11.5462271 58.9174132,11.1118287 C58.5487223,10.8778042 58.1810374,10.6779402 57.9199862,10.6830387 C57.6634618,10.6789599 57.5412355,10.8538409 57.6347915,11.335656 C56.8616975,10.6111489 58.0210869,10.6733515 57.5930434,9.80455472 C56.2606258,9.44612508 55.0886616,8.66145479 53.6335147,8.02923182 C52.2090501,7.38936098 50.4943609,6.85248131 48.7007024,7.09925221 C48.674547,7.37202583 49.2484574,7.73351462 48.5628835,8.19646499 C48.2565632,8.00118967 47.9331414,7.80132563 47.5951328,7.62185588 C47.2571243,7.46278042 46.9020141,7.30982325 46.5308083,7.16400408 C46.1857579,7.31084296 46.1238903,7.71719918 45.9795324,8.04554725 C45.8271268,8.36930659 45.6103386,8.57171992 44.8352327,8.36522774 C45.0962839,8.50798776 45.456424,8.73793338 45.0701285,8.97297757 C43.4057382,9.35486064 41.9500883,10.3174711 40.78416,11.5824269 C39.6016331,12.8504419 38.879844,14.4233515 38.3426518,15.939157 C38.0559482,16.7044528 37.882417,17.471278 37.6641198,18.2304555 L37.1440293,20.489123 C36.9503785,21.2401428 36.8004878,21.9758668 36.5640831,22.7233175 C36.3679174,23.460571 36.0968064,24.2115908 35.8090967,24.9575119 C36.3201334,24.1493882 36.3724443,24.6913664 36.3945758,25.2996261 C36.5157961,24.9019375 37.0504733,25.3021754 37.4101104,25.2195785 C37.0786407,26.0266825 36.7853982,26.8450034 36.5017124,27.6735214 C37.5147321,28.0452073 36.7758414,30.239123 37.7632086,30.3793338 L37.516744,29.6543168 C38.1238517,30.092794 38.7128517,29.6742012 39.334043,29.1725017 C39.9507074,28.6672332 40.6136468,28.0808973 41.3419747,28.0936438 C40.6669636,27.625085 41.0864563,26.8908906 41.4702369,26.1230455 C41.6518159,25.735554 41.8349038,25.3404147 41.8555264,24.9401768 C41.8691071,24.5363698 41.7277672,24.1310333 41.2906698,23.7027532 C41.599002,23.3509517 41.7448688,24.0280421 42.0869013,23.8444935 C41.4787877,23.4167233 41.3661182,22.8844324 41.7302821,21.99983 L41.87464,22.1181169 C41.8852027,21.4741672 41.9963633,20.950034 42.1045059,20.4646499 C42.2564085,20.0022094 42.3881916,19.560673 42.6090038,19.1696125 C42.8192531,18.7729436 43.0345324,18.3711761 43.323248,17.9847043 C43.5792694,17.5696805 43.9187869,17.1852481 44.2698731,16.7416723 C44.0364863,16.664174 43.7940456,16.5846363 43.5631737,16.5239633 C43.9213018,16.1334126 44.1692754,16.1777702 44.4333445,16.0885452 C43.8609432,14.9546227 43.6270533,17.2530591 42.8826297,16.1884772 C43.2825059,16.1940857 43.6325862,16.0385792 43.9102361,15.7658056 C44.0420192,15.6199864 44.2085085,15.4976207 44.3513573,15.3446635 C44.503763,15.2024133 44.6234743,15.0163154 44.7894607,14.8842624 C45.3975743,14.3091434 46.1636264,13.8941196 46.7219441,14.5288919 C47.0000969,14.3978586 46.8668049,14.2260367 46.7279799,14.064412 C46.588652,13.8997281 46.4422822,13.7442216 46.7616802,13.5790279 C46.8813916,13.685588 46.996073,13.7941876 47.1067306,13.9038069 C47.0820841,13.7049626 47.0654855,13.5086676 47.0529108,13.307274 C47.5508698,13.2328348 47.9074889,13.6947655 48.0196555,14.0791978 C47.902459,14.0399388 47.7887836,14.2770224 47.7032754,14.3341264 C48.0131166,14.4717879 48.3370415,14.3978586 48.628775,14.2194086 C48.9391192,14.1092794 49.2268288,13.9369477 49.3234027,14.014446 L48.6800799,13.7962271 C49.5422029,13.4520734 50.6784548,13.5769884 51.7724557,13.8910605 C52.8800373,14.203603 53.9589485,14.6609449 55.1057632,14.9398368 L55.1585771,14.5650918 C55.6183089,14.6640041 55.8723183,14.8506118 56.068987,14.9959211 C56.2636437,15.1478586 56.3657504,15.3099932 56.4482406,15.4945615 C56.5357607,15.6745411 56.6177479,15.8626785 56.7756864,16.0727396 C56.929098,16.2863698 57.1217428,16.5494562 57.4924456,16.8512916 L57.385309,16.8518015 C57.6378094,16.8839225 57.8540946,16.9950714 58.063338,17.1414004 C58.2720784,17.2882393 58.4551664,17.4824949 58.5597881,17.7246771 C58.2720784,17.6216859 58.2232885,17.9245411 58.1513611,18.1932359 C58.0809426,18.4654997 57.9868837,18.7025833 57.654408,18.57155 C58.019578,18.8269884 58.2333483,19.0763086 58.4104003,19.1971448 C58.5839315,19.328688 58.7031399,19.3817131 58.8303961,19.4097553 C59.0818905,19.4745071 59.3499836,19.4174031 60.1854482,19.8288579 C60.0491382,19.9920122 59.9118222,20.1510877 59.7624345,20.3111829 C60.0677488,20.4447655 60.2895669,20.5064582 60.4907625,20.6538069 C60.5913603,20.7282461 60.6869282,20.8240993 60.78652,20.96431 C60.876052,21.1075799 60.965584,21.2957172 61.0636668,21.5506458 C60.7276703,21.1769205 60.5626899,21.4038069 60.3715541,21.6067301 C60.1819273,21.8137322 59.9651391,21.9937118 59.5521852,21.6291638 C59.4626531,21.9202923 59.4279469,22.1716519 59.425935,22.4010877 C59.4113483,22.6346023 59.4359947,22.8431339 59.4847847,23.03586 C59.5949392,23.4167233 59.7498598,23.753739 59.9108163,24.0581237 C60.0747906,24.3609789 60.1799153,24.6480286 60.1592928,24.9197825 C60.1361553,25.1915364 59.9721809,25.4510537 59.5209999,25.7029232 C60.2945968,26.1811693 60.5209418,25.7171992 60.558666,25.1782801 C60.5898513,24.6454793 60.4641041,24.0667913 60.647695,24.3344663 C60.8785669,24.0754589 61.1894141,24.2523793 61.4137471,24.6082597 C61.645122,24.960571 61.8000426,25.4867437 61.7160435,25.8543508 C61.7034687,26.2275663 61.2135575,26.5426581 60.7025208,26.9638001 C60.2055678,27.3880014 59.6920161,27.9065262 59.6180767,28.7753229 C59.6482561,28.6024813 59.5330716,28.5780082 59.5521852,28.407206 C59.0939623,29.0011897 59.9384807,29.760877 59.1658897,30.4629504 C60.0174499,31.0844663 58.9113773,31.4887831 60.058695,31.8691366 C60.0818325,31.2991162 60.0989341,30.7331747 60.0888743,30.171312 C60.1728735,30.6602651 60.513397,31.1915364 60.6969879,31.7946975 C60.8906387,32.3947995 60.9162911,33.0693406 60.3846318,33.7647859 C60.1884661,33.5797077 59.9998453,33.0387492 59.8967326,32.6828688 C59.4561143,33.0458872 59.9072953,33.6077498 59.4344858,33.9768865 C58.8711382,33.746431 58.9551373,33.2442216 59.062274,32.6425901 C59.1824883,32.042998 59.3273491,31.335826 58.9742509,30.7683549 C58.6794994,30.9529232 58.8022287,31.446465 58.8495097,31.8115228 C58.8842159,32.1765806 58.8520246,32.3988783 58.2776113,32.0093474 C58.9983944,32.5416383 58.8515216,32.9704283 58.6176318,33.4287899 C58.3963167,33.8932699 58.0889904,34.3817131 58.5125071,35.1633243 L57.8525856,34.8665874 C57.9059025,35.0842964 58.0889904,35.5763086 57.9551954,35.914344 L57.2852142,35.003739 C57.5004934,35.5961931 57.1790835,35.9989803 56.8214584,36.3701564 C56.4668512,36.7443916 56.0709989,37.0854861 56.0881006,37.6014616 C56.4537735,36.6796397 56.6519511,36.6373215 56.9210502,36.7688647 C57.1775745,36.8968389 57.4496915,37.1900068 57.8339751,36.8738953 C57.8656634,37.5520054 57.7132577,37.9333787 57.4849008,38.1628144 C57.2580528,38.3937797 56.9522355,38.4758668 56.6268017,38.5559143 C55.9638623,38.7149898 55.2767794,38.8745751 54.8557777,40.1884772 C54.9146274,39.8111829 55.8260433,39.0871856 55.8899229,39.753569 C55.5363217,40.1777702 54.9996326,40.6988443 54.5283319,40.8293678 C53.9116675,42.5567641 55.3114857,40.8930999 55.387437,41.7950374 C54.3341782,41.9816451 55.3029349,42.7673351 55.1832235,43.6402107 L54.5328588,43.3082937 C53.8568418,44.1475187 54.115881,44.4468049 54.3819622,44.7256968 C54.6495523,45.0030591 54.9166394,45.2559483 54.2003832,45.9692386 L53.711478,44.7583277 L53.4564626,45.7632563 L52.8347683,45.1702923 C52.8579058,46.4255608 52.5279451,46.6402107 51.7860364,47.4299796 C52.350893,47.4865738 52.8443251,48.2457512 52.3674916,49.0829368 C51.6482175,49.3990483 51.9796871,48.4012576 51.3353584,49.5973827 C51.1165582,49.0870156 50.8192917,48.5042488 51.6919775,48.3686268 C51.5214642,48.189157 51.4570817,47.8674371 51.2885804,47.6905167 C50.5270552,48.0193746 50.263489,49.0926241 50.0140065,49.5086676 C50.1372388,49.3674371 50.2906504,49.2022434 50.4395351,49.1629844 C50.3681107,49.8900408 50.3112729,50.6339225 50.2101722,51.3635282 C49.80929,51.4629504 49.7670389,51.1335826 49.7257938,50.8123725 C49.5678553,51.1835486 49.6880697,51.6021414 49.4089108,52.1216859 C49.0090346,51.6541468 48.4884411,51.3278382 48.71881,50.4957512 L48.2133062,52.4026173 C47.9306264,52.3531611 47.0810782,52.7574779 47.0458689,52.4326988 C46.6052506,52.7437118 46.4704496,53.4233515 46.2954095,54.135622 C46.1062857,54.8402447 45.8759167,55.5764786 45.2798749,55.9823249 C45.3271558,56.1102991 45.3281618,56.2933379 45.2175042,56.5798776 C44.3020644,57.5195445 43.0455981,57.960571 42.688476,59.6777702 L41.3193402,59.6711421 C40.736879,60.7647859 43.1039449,59.6181169 42.1221105,61.4413664 C41.4571592,62.7675051 41.0859533,61.2618967 40.5376954,61.4546227 C40.512546,61.9027872 40.513552,62.5462271 40.3193983,63.1305235 C40.2228244,63.4226717 40.0809815,63.7010537 39.8682172,63.9335486 C39.8154034,63.9911625 39.7580626,64.0467369 39.695692,64.0982325 C39.6650097,64.1237254 39.6308064,64.1507478 39.5996211,64.1721618 C39.5810105,64.1787899 39.561394,64.1843984 39.5407714,64.1889871 C39.4577782,64.2053025 39.3576835,64.2032631 39.242499,64.1706322 C39.2274093,64.0334806 39.2636245,63.9743372 39.3129174,63.9238613 C39.4321258,63.7902787 39.5749747,63.6526173 39.6760754,63.4726377" id="Fill-116" fill="#FF2020"></path>
                    <path d="M20.467,48 C20.374,48.279 20.191,48.481 20,48.68 C20.33,48.707 20.553,48.536 20.467,48" id="Fill-118" fill="#FF2020"></path>
                    <path d="M45.085,56.292 C45.112,56.275 45.127,56.25 45.152,56.231 C45.113,56.14 45.06,56.065 45,56 L45.085,56.292 Z" id="Fill-120" fill="#FF2020"></path>
                    <path d="M12,9 C11.5994648,9.147 11.2765388,9.125 11,9.042 C11.2033898,9.313 11.5209634,9.391 12,9" id="Fill-122" fill="#FF2020"></path>
                    <path d="M36,14.8786232 L35,14 C35.3971119,14.4522947 35.2608303,14.7022947 35.2364621,15 C35.4972924,14.8913043 35.767148,14.5785024 36,14.8786232" id="Fill-124" fill="#FF2020"></path>
                    <path d="M33.0133549,24.4949091 C33.2478326,24.6268698 33.2064542,24.8695561 33.4409318,25 L34,24.7755152 C33.6055259,24.0133285 32.8938173,23.6288224 33.0133549,24.4949091" id="Fill-126" fill="#FF2020"></path>
                    <path d="M33.2734186,17 C32.692727,17.2560289 33.1583916,17.5860129 33.5512614,18 C33.5323681,17.9734727 33.5112521,17.9497588 33.5012497,17.920418 C34.444804,17.7721061 33.8652238,17.3802251 33.2734186,17" id="Fill-128" fill="#FF2020"></path>
                    <path d="M33,19 C33.208,19.3147605 33.396,19.6471163 33.495,20 C34.178,19.8572825 33.436,19.5317693 33,19" id="Fill-130" fill="#FF2020"></path>
                    <path d="M31.2675885,9.82804679 C31.272567,10.3290514 31.9713641,9.53573243 31.8441866,9.93091184 C32.6140401,9.82952686 30.2261818,7.95575483 31.2675885,9.82804679" id="Fill-132" fill="#FF2020"></path>
                    <polygon id="Fill-134" fill="#FF2020" points="31.148415 18 32 17.09797 31 17"></polygon>
                    <path d="M30,14.0132489 L30.4170177,14.8908159 C30.5964617,14.8280351 30.8011794,14.8985498 31,15 C30.5871946,14.5009378 30.3176074,13.903155 30,14.0132489" id="Fill-136" fill="#FF2020"></path>
                    <path d="M31,14 C31.256,14.4388932 31.536,14.8416603 31.91,15 C31.748,14.7709454 31.392,14.2820907 31,14" id="Fill-138" fill="#FF2020"></path>
                    <polygon id="Fill-140" fill="#FF2020" points="31.45 17 31.492 16.6623578 31 16"></polygon>
                    <path d="M22.9989717,5.58181818 C22.8436974,5.46507177 22.6913848,5.34258373 22.5369567,5.23923445 L22.0656336,5 C21.8959743,5.37320574 22.0702876,5.86698565 22.4155296,6 C22.6723457,5.93205742 23.0213955,6.1569378 22.9989717,5.58181818" id="Fill-142" fill="#FF2020"></path>
                    <path d="M24.7404427,9 C24.7008719,8.56425406 24.8638498,8.40029542 25,8 L24,8.82717873 C24.2421194,8.8788774 24.4909457,8.9254062 24.7404427,9" id="Fill-144" fill="#FF2020"></path>
                    <path d="M22.8067123,6 C22.7025538,6.1743738 22.3502817,6.18786127 22.1527735,6.29672447 C21.939052,6.45086705 21.9051513,6.5539499 22.3434033,7 C22.5237155,6.62138728 23.3761452,7.10597303 22.8067123,6" id="Fill-146" fill="#FF2020"></path>
                    <path d="M8.85534864,9 L9,8.83257167 L8,8 C8.28020788,8.33859576 8.56517973,8.67220607 8.85534864,9" id="Fill-148" fill="#FF2020"></path>
                    <path d="M8.95781664,20.8878397 C9.21690146,20.1219861 8.18335233,20.7407329 8.53889642,20.0291553 C8.24553269,19.8431195 8.24912002,20.6153365 8,20.4334182 C8.32325813,20.9054326 8.179765,21.1614658 8.95781664,20.8878397" id="Fill-150" fill="#FF2020"></path>
                    <path d="M8.481,20.657 C8.347,20.453 8.193,20.235 8,20 C8.184,20.379 8.35,20.552 8.481,20.657" id="Fill-152" fill="#FF2020"></path>
                    <polygon id="Fill-154" fill="#FF2020" points="35.47 29 35 30 35.916 29.3194131"></polygon>
                    <path d="M37,31 L36,31.4411348 L36.9888771,32 C36.9205508,31.741844 36.7865466,31.2382979 37,31" id="Fill-156" fill="#FF2020"></path>
                    <path d="M35.4919246,59 L35.0689246,59.1440678 C34.8749246,59.4636804 35.1059246,59.6416465 35.5679246,60 L35.4919246,59 Z" id="Fill-158" fill="#FF2020"></path>
                    <path d="M38.058,64 L38,64.002574 C38.079,64.3466323 38.18,64.6791077 38.305,65 C38.212,64.6718147 38.129,64.3384813 38.058,64" id="Fill-160" fill="#FF2020"></path>
                    <path d="M39.6623863,59 C39.3967261,59.2639752 39.2676767,59.734472 39,60 C39.3957179,59.2644928 40.5732935,59.6537267 39.6623863,59" id="Fill-162" fill="#FF2020"></path>
                </g>
                <g id="Page-1" transform="translate(39.000000, 10.000000)">
                    <path d="M40.0338047,56.1914251 C39.9932603,56.8644251 40.8405709,56.5084251 41,56.5864251 C40.7519228,55.5194251 39.8111538,56.2454251 40.0338047,56.1914251" id="Fill-1" fill="#FF2020"></path>
                    <polygon id="Fill-3" fill="#FF2020" points="38.6035141 49.8869258 39 50 38 49"></polygon>
                    <path d="M38.4580599,44 C37.3241793,44.6183387 38.7005351,46.2334771 38.3188114,47.3432587 L38.0612823,47.5313761 L39,48 C38.818278,46.6737164 38.1639714,44.9528315 38.4580599,44" id="Fill-5" fill="#FF2020"></path>
                    <path d="M40.6215343,41.0991828 C39.8005343,41.3539011 39.8615343,40.2843411 40.4055343,42 C40.4925343,41.9114581 40.5445343,41.8851522 40.6085343,41.8338236 C40.5875343,41.6785546 40.5795343,41.4642576 40.6215343,41.0991828" id="Fill-7" fill="#FF2020"></path>
                    <path d="M40,41.1949388 C40.099,42.3759388 40.675,40.3989388 40,41.1949388" id="Fill-9" fill="#FF2020"></path>
                    <path d="M40,39.3444361 L40.4703143,40 C40.7485448,39.8523274 40.7799767,39.2539547 41,39.4690615 C40.7252619,38.7887433 40.4487776,38.9402571 40,39.3444361" id="Fill-11" fill="#FF2020"></path>
                    <path d="M39,39 L39.348,39.795 C39.549,39.644 39.611,39.426 39,39" id="Fill-13" fill="#FF2020"></path>
                    <path d="M40,40 L39.3992901,39 C39.1243057,39.1427725 38.556332,39.1735782 39.6218965,39.4603081 C39.0981167,39.3927725 39.6079836,39.5781991 40,40" id="Fill-15" fill="#FF2020"></path>
                    <path d="M39.9547214,41 C39.6786263,41.36036 39.5128402,41.8156362 39,41.199485 C39.2541623,42.3887534 40.2185599,42.1953012 39.9547214,41" id="Fill-17" fill="#FF2020"></path>
                    <path d="M36.595,44.0015526 L36,44.5451053 L36.744,45 C36.375,44.7730168 37.264,43.9597765 36.595,44.0015526" id="Fill-19" fill="#FF2020"></path>
                    <path d="M40,34.0022399 C39.7364208,33.9684263 39.3281875,34.3273703 39,34.4095632 L39.3441967,35 C39.4985706,34.6764303 39.6180675,34.0703872 40,34.0022399" id="Fill-21" fill="#FF2020"></path>
                    <path d="M39.906,34.9824235 L39,34 C39.03,34.9122089 39.408,35.0590212 39.906,34.9824235" id="Fill-23" fill="#FF2020"></path>
                    <polygon id="Fill-25" fill="#FF2020" points="38.0281924 38.3300971 39 40 38 38"></polygon>
                    <polygon id="Fill-27" fill="#FF2020" points="40.3494983 30.4464501 41 31 40 30"></polygon>
                    <path d="M39.1085766,27.9307392 C39.5565693,28.2648371 39.6998175,27.2610157 40,27.6445152 C39.8512774,27.0017843 39.392792,26.4527637 39,26 C39.2682482,26.5205 39.3435219,27.1499892 39.1085766,27.9307392" id="Fill-29" fill="#FF2020"></path>
                    <path d="M39,26 C39.2624434,26.3422775 39.6063348,26.6426702 40,27 C39.7571644,26.6400524 39.4728507,26.3193717 39,26" id="Fill-31" fill="#FF2020"></path>
                    <path d="M39.0350584,32 C39.2479132,31.8908497 39.8472454,31.6836601 40,31 L39,31.545098 C39.0108514,31.6836601 39.0225376,31.8405229 39.0350584,32" id="Fill-33" fill="#FF2020"></path>
                    <path d="M39.06,32 L39.099,31.9819704 C39.05,31.4887315 39.015,31.1461687 39,31 C39.008,31.1262073 39.027,31.4269156 39.06,32" id="Fill-35" fill="#FF2020"></path>
                    <path d="M39.1128977,31.175 C39.1088977,31.111 39.1068977,31.063 39.1028977,31 C38.9838977,31.079 38.9448977,31.123 39.1128977,31.175" id="Fill-37" fill="#FF2020"></path>
                    <path d="M39,35 C38.7037037,34.4673059 38.3605442,33.3530965 38,34.4987685 C38.3492063,34.8633005 38.5544218,34.2042136 39,35" id="Fill-39" fill="#FF2020"></path>
                    <path d="M38.1086957,33 L38,33.977131 C38.2792642,33.9443867 38.666388,33.7489605 39,34 L38.1086957,33 Z" id="Fill-41" fill="#FF2020"></path>
                    <polygon id="Fill-43" fill="#FF2020" points="38 31 38.485 31.871 38.532 31.172"></polygon>
                    <path d="M38.9603244,27.5179065 C38.4099678,27.0913415 38.2321133,26.5783556 38.0015895,26 C37.9870863,26.6597907 38.0725786,27.3251213 38.2275334,27.9344998 C38.5412596,27.9777103 39.1626053,28.1887768 38.9603244,27.5179065" id="Fill-45" fill="#FF2020"></path>
                    <path d="M39.1653688,30.176 C39.1273688,30.122 39.1023688,30.05 39.0643688,30 C38.9753688,30.128 38.9533688,30.224 39.1653688,30.176" id="Fill-47" fill="#FF2020"></path>
                    <path d="M36.154,21 C36.102,21.08 36.053,21.153 36,21.235 C36.074,21.217 36.14,21.202 36.218,21.184 L36.154,21 Z" id="Fill-49" fill="#FF2020"></path>
                    <path d="M38.0371095,28.1231167 C37.9181095,28.564364 38.3011095,28.7888135 38.7641095,29 C38.5431095,28.6934224 38.3621095,28.3664404 38.2451095,28.0083414 C38.0561095,27.9894673 37.9351095,27.9930381 38.0371095,28.1231167" id="Fill-51" fill="#FF2020"></path>
                    <path d="M38.235,24 C38.115,24.3136161 38.048,24.6523437 38,25 C38.266,24.6830357 38.602,24.0396205 38.235,24" id="Fill-53" fill="#FF2020"></path>
                    <path d="M39,29.1121631 C39.026,29.1511631 39.056,29.1861631 39.075,29.2301631 C39.307,28.9181631 39.179,28.9701631 39,29.1121631" id="Fill-55" fill="#FF2020"></path>
                    <path d="M38.939,29.7511346 C38.692,29.4447806 38.329,29.2239032 38,29 C38.175,29.3706505 38.381,29.7102874 38.629,30 C38.705,29.9130106 38.825,29.8207262 38.939,29.7511346" id="Fill-57" fill="#FF2020"></path>
                    <path d="M31.2151319,21.1635274 C31.8554984,20.9810383 32.8730443,21.7330989 32.5880644,22.8223788 C33.4111533,23.4762552 35.2093205,22.2008879 36,21.0123956 C35.720608,21.0884756 35.471949,21.1804912 34.713679,20.4536192 C34.5253688,20.8864524 34.8014081,22.6769016 33.9179705,22.1551371 C33.0870586,21.1388528 33.7106616,21.1424512 33.7799508,20.4603019 C33.2390478,21.2231576 31.9951945,19.4692063 31,20.1683194 L31.8554984,20.9856648 C31.6906571,21.0725399 31.2453062,20.8304206 31.2151319,21.1635274" id="Fill-59" fill="#FF2020"></path>
                    <path d="M36.5186528,22.6659723 L36.7367876,23 C36.6699482,22.5567244 36.780829,22.1714565 37,21.4864822 C36.4699482,21.0103355 36.2072539,20.9750475 36,21.0098521 C36.2207254,21.5889624 36.4419689,22.1487368 36.6549223,22.7583012 L36.5186528,22.6659723 Z" id="Fill-61" fill="#FF2020"></path>
                    <path d="M37.6310498,24.8973919 C37.2976385,24.8160604 37.0063128,24.544269 36.7411737,24.4037406 C36.4652794,24.2652711 36.2211831,24.2580645 36,24.658545 C36.3338789,25.8260124 36.6916063,25.3349348 37.1255553,26 C36.491466,24.0444406 37.5959785,26.4946809 37.5683891,24.9339396 C37.7619827,25.3040494 37.8989946,25.6772478 37.9831658,25.9984557 C37.9892448,25.6257721 37.971943,25.2258065 38,24.8531229 C37.99018,24.8762869 37.9836334,24.8927591 37.9752163,24.9123198 L37.9798924,24.9215854 L37.9700725,24.9221002 C37.9195698,25.0348318 37.882628,25.0770419 37.8999299,24.962766 C37.8910451,24.9581332 37.8821604,24.9334248 37.8770166,24.9231297 C37.7928455,24.9334248 37.7124152,24.9164379 37.6343231,24.8963624 C37.6048632,24.2596088 37.7615151,24.7532601 37.8770166,24.9231297 C37.9074117,24.9210707 37.9382745,24.9293068 37.9700725,24.9221002 C37.9724106,24.9190117 37.9738134,24.9159231 37.9752163,24.9123198 C37.8321253,24.5792725 37.7030629,24.2431366 37.5459434,23.9229581 C37.3883563,23.6115305 37.2279635,23.2650995 37.0727145,23 C37.0989011,23.1992107 37.1596914,23.4442347 37.2574234,23.7505148 C37.3626374,24.0506177 37.4795417,24.4207275 37.6310498,24.8973919" id="Fill-63" fill="#FF2020"></path>
                    <path d="M35,34.3062147 C35.106,34.1902147 35.198,34.1882147 35.292,34.1732147 C35.118,33.9592147 35.005,33.8822147 35,34.3062147" id="Fill-65" fill="#FF2020"></path>
                    <path d="M36.2288439,33.9442652 C36.3504172,34.0574875 36.6650775,34.1391019 36.6191895,34.5339645 C36.4171633,34.8854253 36.2508939,34.5533067 36,34.5853863 C36.2228844,34.8071133 36.6209774,35.3774704 36.932062,34.6184095 L36.8170441,34.5070742 C37.0315852,33.8300994 37.8766389,32.8997898 38,33.0087662 C37.3313468,33.2536094 36.8581645,33.46024 36.2288439,33.9442652" id="Fill-67" fill="#FF2020"></path>
                    <path d="M37,30 L36.4495648,28 L36,29.1664355 L36.3338454,29.0429958 C36.3297491,30.2337032 36.7214542,29.9022191 37,30" id="Fill-69" fill="#FF2020"></path>
                    <polygon id="Fill-71" fill="#FF2020" points="36.4232179 21 37 20.8464567 36 20"></polygon>
                    <polygon id="Fill-73" fill="#FF2020" points="35 20 36 19.655 35.0680628 19"></polygon>
                    <path d="M38,66.257 C38.079,66.177 38.152,66.091 38.221,66 C38.123,66.049 38.054,66.141 38,66.257" id="Fill-75" fill="#FF2020"></path>
                    <path d="M36.277,64 L36,64.551 C36.215,64.311 36.333,64.092 36.277,64" id="Fill-77" fill="#FF2020"></path>
                    <g id="Group-81" transform="translate(0.000000, 20.000000)">
                        <mask id="mask-4" fill="white">
                            <use xlink:href="#path-3"></use>
                        </mask>
                        <g id="Clip-80"></g>
                        <path d="M0.91115,0.44665 C0.38165,1.19065 -0.41135,2.11665 0.25365,1.96365 L0.88115,1.68765 C0.72865,1.18865 0.78865,0.78115 0.91115,0.44665" id="Fill-79" fill="#FF2020" mask="url(#mask-4)"></path>
                    </g>
                    <path d="M17.9406667,49.529 C17.96,49.358 17.9806667,49.178 18,49 C17.6406667,49.038 17.304,49.072 17,49.104 C17.284,49.232 17.604,49.377 17.9406667,49.529" id="Fill-82" fill="#FF2020"></path>
                    <path d="M21,48 L21.328,49 C21.336,48.7380819 21.237,48.4127874 21,48" id="Fill-84" fill="#FF2020"></path>
                    <path d="M45.8472232,56 L45.3812232,55 C44.4782232,55.7581158 45.4052232,55.6861871 45.8472232,56" id="Fill-86" fill="#FF2020"></path>
                    <path d="M23,0.859490719 C22.2643541,0.357775956 21.5950957,0.149116462 21,0 C21.4814593,0.284771021 21.8744019,0.609927751 22.1949761,0.800465453 C22.5143541,1.01326707 22.7679426,1.08989636 23,0.859490719" id="Fill-88" fill="#FF2020"></path>
                    <path d="M36.0078622,74.4108113 C36.6258622,74.6998113 36.8958622,74.5948113 36.9158622,74.2028113 C36.3188622,73.9168113 35.9398622,73.8888113 36.0078622,74.4108113" id="Fill-90" fill="#FF2020"></path>
                    <path d="M19,0.445256603 C19.1190019,0.586256603 19.2356046,0.662256603 19.3550864,0.783256603 C19.8603647,0.626256603 20.3886756,0.601256603 21,0.891256603 C20.4385797,0.140256603 19.696737,-0.436743397 19,0.445256603" id="Fill-92" fill="#FF2020"></path>
                    <path d="M48.202,14.093 C48.136,14.055 48.068,14.05 48,14 C48.046,14.171 48.115,14.157 48.202,14.093" id="Fill-94" fill="#FF2020"></path>
                    <path d="M36.1855124,26 C36.0835124,25.7645182 36.0685124,25.3726867 36.0535124,25 C35.9695124,25.1805999 35.9645124,25.4894703 36.1855124,26" id="Fill-96" fill="#FF2020"></path>
                    <path d="M33,11 C33.459,11.703 33.188,11.052 33,11" id="Fill-98" fill="#FF2020"></path>
                    <path d="M31.712,14.0827859 C31.504,13.9927859 31.279,13.9577859 31,14.0727859 C31.312,13.9937859 31.54,14.0067859 31.712,14.0827859" id="Fill-100" fill="#FF2020"></path>
                    <path d="M14.066,5 C14.044,5.005 14.025,5.009 14,5.015 C14.296,5.194 14.244,5.159 14.066,5" id="Fill-102" fill="#FF2020"></path>
                    <path d="M33.1429483,12 C33.1499483,11.688057 33.0969483,11.3493761 33.0019483,11 C32.9899483,11.1773619 33.0329483,11.4848485 33.1429483,12" id="Fill-104" fill="#FF2020"></path>
                    <path d="M33,11 C33.075,11.282 33.146,11.498 33.21,11.705 C33.45,11.701 33.53,11.556 33,11" id="Fill-106" fill="#FF2020"></path>
                    <path d="M33,11 C33.237,11.3291039 33.388,11.6645519 33.501,12 C33.504,11.853291 33.537,11.777954 33.597,11.7930214 C33.466,11.628073 33.284,11.3949247 33,11" id="Fill-108" fill="#FF2020"></path>
                    <path d="M60.1269186,33.6457559 C60.1779186,33.6067559 60.2169186,33.5567559 60.2839186,33.5167559 C59.9339186,32.6517559 59.9399186,32.9967559 60.1269186,33.6457559" id="Fill-110" fill="#FF2020"></path>
                    <path d="M9.091,30.054 C9.067,30.027 9.028,30.023 9.001,30 C9.001,30.038 9,30.085 9,30.119 L9.091,30.054 Z" id="Fill-112" fill="#FF2020"></path>
                    <path d="M12,30.8672489 C10.8734694,30.7065502 10.8145773,30.4030568 10.8134111,30 C10.2046647,30.3275109 9.59708455,30.6615721 9,31 C10.0087464,30.9694323 11.0034985,30.9257642 12,30.8672489" id="Fill-114" fill="#FF2020"></path>
                    <path d="M65.4643168,29.1709721 L65.2404867,29.4422162 C65.1066917,28.7635962 65.2656362,28.9634602 65.4643168,29.1709721 M30.354182,9.03823929 C30.5151384,9.11522774 30.5981316,9.05659415 30.6559753,8.95156356 C30.445223,8.95462271 30.2721948,8.6757308 30.1323639,8.3239293 C30.0191914,8.51206662 29.9970599,8.74150238 30.354182,9.03823929 M29.8934441,7.60146159 C29.8763425,7.59585316 29.8637678,7.59228416 29.8451572,7.59024473 C29.7063323,6.8167913 29.7460684,7.09772264 29.8934441,7.60146159 M18.2552868,46.7600272 C18.5766967,46.7880693 18.6767915,47.1317131 18.6858453,47.6048606 C18.472578,47.4218219 18.3111185,47.1515976 18.2552868,46.7600272 M34.5657081,62.9077158 C34.8795732,63.0117267 35.6234938,63.0984024 35.4645493,63.557274 C34.6356236,63.907036 34.7412512,63.4374575 34.5657081,62.9077158 M39.6760754,63.4726377 L39.1268115,63.6623046 C39.016657,63.7153297 38.9975434,63.6617947 38.9361788,63.6577158 C38.8843709,63.6424201 38.834575,63.6255948 38.7852821,63.6067301 C38.7309593,63.5042488 38.6781454,63.4063562 38.6283495,63.3145819 C38.654002,63.1524473 38.6861933,63.0076479 38.7183846,62.8776343 C38.7837731,62.6186268 38.8531856,62.421312 38.881353,62.2780421 C38.9391967,61.9925221 38.834072,61.9236914 38.2148927,62.0088375 C38.5805656,62.374915 38.6147688,62.7522094 38.4829857,63.1361319 C38.5076322,63.3359959 38.4930455,63.3946295 38.4377167,63.4996601 C38.3426518,63.6898368 38.2521138,63.8744052 38.6026971,65.0460571 C38.4915366,64.9537729 38.3914418,64.8482325 38.3014067,64.7299456 C38.3481847,64.707002 38.3149874,64.5596533 38.3587475,64.5407886 C38.0755647,64.1114888 38.1761625,64.5652617 38.1967851,65.2438817 C38.2355152,65.9021074 38.1952761,66.7826309 37.8929798,66.9060163 C37.8869439,66.9039769 37.881411,66.9090755 37.8758781,66.9004079 C37.6651258,66.4537729 37.5841446,65.9551326 37.699329,65.7323249 C37.5781087,65.8521414 37.43023,65.9444256 37.2561958,66.0101971 C37.1369874,65.8312373 37.2491539,65.4330387 37.3467338,65.5880354 C37.1460412,65.4626105 36.9327739,65.3229096 36.7069319,65.1689327 L36.7366083,65.1118287 C36.5318918,65.3667573 36.0530463,65.5921142 35.7914921,65.6288239 C35.751756,65.1633243 36.0163281,65.5452073 36.1003273,65.2627464 C35.8759942,65.271414 35.6300327,65.2576479 35.3619396,65.2199184 C35.4464417,64.9221618 35.6863674,64.7916383 35.8966168,64.7401428 C36.1103871,64.692726 36.2985049,64.7268865 36.3945758,64.8813732 C37.1898013,62.7425221 36.1989131,65.4279402 35.3111377,62.775153 L36.2170207,63.3365058 C36.5852086,62.0328008 35.7195647,61.7503399 35.4409088,60.3961591 C35.3533888,60.8616587 35.7452171,63.3742352 34.5556483,62.8771244 C34.434931,62.5253229 34.1839395,62.153637 33.4440429,61.9792658 C33.9646364,61.4617607 33.4038037,61.1354521 32.8344203,60.596533 L33.5677781,59.9581917 C32.7911632,59.5390891 32.4808191,59.9311693 31.8254245,59.871516 C31.2500052,59.1169273 31.6609472,58.4546227 31.9687764,57.8560503 C31.0654083,56.6461591 31.7957482,59.4529232 30.4608156,58.2685248 C29.8853963,57.0902447 29.0011418,56.7211081 27.5791922,55.9940517 C27.2426926,55.1150578 28.1194023,55.707002 28.1148754,55.2853501 L27.0259044,55.2292658 C26.9132349,55.0752889 27.1305261,54.9610809 27.2401776,54.903467 C26.5847831,54.6153977 26.4851913,55.5158056 25.6125055,54.914174 C24.6276533,55.410775 25.3926994,52.2868797 23.6734833,52.1079198 C23.6815311,51.6883073 24.2217412,51.8361659 24.4450683,51.5175051 C22.7208223,50.7047927 23.0568189,50.7506798 21.329052,50.3203603 L21.057438,48.9646499 C21.0468752,50.1281441 19.6681826,49.7773623 18.4926975,49.403637 C18.4147342,49.8778042 18.3438128,50.2902787 18.3433098,50.5299116 L16.9329289,49.5540449 C16.9364498,49.2986064 17.3011168,49.2251869 17.7829802,49.1869477 C17.6522031,49.1481985 17.5249469,49.1135282 17.4173072,49.0931339 C17.3423619,48.4099252 17.971601,48.3084636 18.651642,48.3018355 C18.6209597,48.5756288 18.5802176,48.85707 18.5374635,49.1339225 C19.2456719,49.0870156 19.9815447,48.9728076 20.374882,48.5526852 C20.2244883,48.5399388 20.0263107,48.4415364 19.8492586,48.3003059 C20.0378795,48.2829708 20.1897821,48.246261 20.2365601,48.1478586 C20.283841,48.0412984 20.013736,48.0433379 19.6591288,47.9887831 L20.2878649,47.0338205 L19.8955336,47.228586 C19.6415242,46.5433379 19.4262449,45.8387152 19.1928581,45.149898 C18.3151424,44.8832427 17.3654994,44.7175391 16.4254131,44.3917403 C15.479291,44.0705303 14.5205941,43.6024813 13.6806026,42.7092114 C14.6654549,42.7652957 14.8218845,42.089225 15.6176129,41.5916044 C15.385232,42.139191 15.7202227,42.4695785 16.1874994,42.7912984 C16.6603089,43.1109789 17.2508179,43.4281101 17.518408,43.9889531 C17.2377402,43.403637 17.6828854,43.2593474 17.9016856,43.300136 C17.248806,42.8805235 16.5707769,42.4680489 15.930975,42.024983 C16.5919024,41.6313732 16.1532961,41.3132223 16.1060152,40.6636642 C15.0779058,41.871516 14.3707034,39.8662475 13.527694,39.3461931 C13.9305881,39.0280421 14.481361,38.9316791 14.9415958,39.9157036 C15.2886582,38.292828 12.622314,39.5562542 12.8370902,38.0282121 C12.9769211,38.253569 12.9915078,38.4131543 13.2656368,38.3682869 C12.5539075,38.075119 12.120331,36.5649218 12.6776427,36.6546567 L12.8169707,36.8779742 C12.4558246,36.0734194 11.7979151,34.9196125 11.1289399,33.9911625 C10.4524198,33.0667913 9.72107394,32.3662475 9.08630193,32.5197145 C9.23015676,32.4340585 10.579676,32.0593134 10.8588349,32.03586 C9.13056496,31.7508498 7.39324127,31.378654 5.64887573,30.8779742 C6.21322928,30.8096533 7.00694578,30.2692046 7.80317723,29.9046567 C8.59940867,29.5380693 9.38658631,29.3376954 9.93635319,29.8587695 C9.92880836,29.4264106 9.92126352,28.9134942 9.27693473,28.2654657 C9.21003721,28.5673012 8.01996545,29.4697485 7.78758457,29.1444596 C8.59991166,27.7372536 8.15074256,28.2195785 8.77796973,26.7093814 C8.66831815,27.1651937 6.88220453,27.2503399 6.75444535,26.5732495 C7.03159224,26.6023114 8.38563838,26.0654317 8.62154018,26.2387831 C7.93345135,25.8915704 7.25944622,25.5117267 6.59097396,25.0951734 C6.97374852,25.4311693 8.00789371,24.8382053 8.40827288,24.4109449 C8.10547356,24.6327328 8.18595179,23.1057104 7.98978611,22.7330048 C7.8906973,22.9629504 7.78205169,23.1974847 7.69050771,23.4350782 C7.68698679,22.5540449 7.05925663,22.2037729 6.40486806,21.8020054 C5.76255122,21.4089055 5.07949228,20.9638001 5.1333121,20.0022094 C5.4869133,20.2520394 7.28459566,20.5232835 7.5094317,19.6743712 C7.09195091,19.4668593 6.04171007,18.9804555 5.09910885,18.2294358 C4.13437612,17.4870836 3.28331889,16.4581917 3.14902085,15.4456152 C3.3326118,15.3609789 3.52123264,15.2804215 3.71186544,15.2029232 C3.64345895,14.6961251 3.57052556,14.1755608 3.54336415,13.6509177 C4.02774247,14.289259 4.78323182,15.3732155 5.60511569,16.3618287 C6.40637703,17.3585996 7.27906278,18.2610469 7.76545306,18.8346363 C8.22518492,18.24983 8.34690824,18.7122706 8.42386554,17.8057444 C8.92987238,17.5656016 9.04807478,18.3793338 9.0651764,18.6337525 C9.21909101,17.9688987 9.43940015,17.3310673 9.66624815,16.71414 C9.1602413,16.6458192 9.00733268,16.2165194 8.87655556,15.7637661 C8.765898,15.3227396 8.68491678,14.8633583 8.27196289,14.7649558 C8.36400986,15.6276343 8.51893044,16.460741 8.73169475,17.2622366 C8.22669389,17.2194086 7.57381428,16.7692046 7.1377229,16.0712101 C6.71521222,15.3874915 6.51804056,14.4386472 6.90986892,13.6692726 C7.17293212,13.5372196 7.56526347,13.7824609 7.93848124,14.053705 C8.31119602,14.3269884 8.66630619,14.6232155 8.83128656,14.6650238 C8.70453335,14.5192046 8.65775538,14.1169273 8.7115752,13.7564582 C8.7704249,13.3985384 8.88309441,13.0630523 9.0334881,13.0615228 C9.10038562,13.3307274 9.19142662,13.6045207 9.27291082,13.8640381 C9.60085959,13.5667913 9.43537624,13.1374915 9.36998768,12.6934058 C9.32924558,12.4680489 9.3237127,12.2508498 9.41223875,12.0662814 C9.50227376,11.8847723 9.66323021,11.7154997 10.0087836,11.6548266 C10.1315129,11.5334806 10.5384309,11.5130863 10.8477691,11.4916723 C11.169682,11.4794358 11.3930091,11.4539429 11.1747119,11.242862 C9.97005345,10.8920802 6.90886295,8.98776343 6.53061529,8.03433039 C6.62266226,8.00016995 7.19305168,7.64938817 7.88717637,7.40873555 C8.5571576,7.1410605 9.3282396,6.99371176 9.68737368,7.03806934 C10.2456914,7.14513936 10.399103,7.73810333 10.5857119,8.29843644 C10.763267,8.86233855 10.9614446,9.38290279 11.4030688,9.50220938 C11.2224958,9.28908906 11.215957,8.81492182 11.2421124,8.63443236 C11.6741799,8.58956492 11.7018443,9.37933379 12.1867256,8.81543168 C11.6445035,7.89157036 13.5221611,7.99099252 11.9573626,7.88953093 C12.4477768,7.18847723 12.7656658,7.59024473 13.5468076,7.1303535 C13.2686547,6.88970088 13.1967273,6.29265806 13.3380672,5.6446295 C13.4049647,5.31373215 13.5362448,5.00271924 13.7012252,4.72127804 C13.8672115,4.44544528 14.0623712,4.18694765 14.2761415,4.0564242 C14.3012909,4.32460911 14.6071082,4.59432359 14.7434182,4.71872876 C15.6543311,4.48776343 16.3932218,4.53212101 17.0833226,4.58208702 C17.429882,4.61012916 17.7688965,4.67539089 18.1219947,4.70139361 C18.4740869,4.76206662 18.8437838,4.79265806 19.2542227,4.83905506 C19.3920417,5.11233855 20.0932082,5.50798776 19.7033918,5.91077498 C19.9443235,5.75118967 20.2058777,5.46872876 20.691262,5.54316791 C21.0146839,6.11573759 20.7501117,6.04945615 20.464917,6.04945615 C20.1706685,6.04486744 19.8739051,6.05914344 20.0756036,6.65975527 C20.2451109,6.06628144 21.3924286,6.10707002 22.1599897,6.08973487 C22.2092826,5.85673012 22.1418821,5.68745751 22.0005422,5.56560163 C21.9296207,5.50441876 21.8410947,5.45547247 21.7404969,5.41672332 C21.6363782,5.3871516 21.5191818,5.37083617 21.3964525,5.36216859 C20.9085533,5.30659415 20.3230742,5.48147519 19.9624311,5.59313392 C20.0720827,4.95938137 20.4855396,4.37100612 21.2168855,3.95190347 C21.5740076,3.76937458 22.0121109,3.62202583 22.5035311,3.55676411 C22.9818735,3.52719239 23.5417002,3.51087695 24.0874432,3.67454113 C24.9440333,3.96312033 24.9742126,4.2889191 24.8565132,4.47093814 C24.7368018,4.66162475 24.4702177,4.76767505 24.638216,4.77583277 C24.8313638,4.93745751 25.0390982,5.08735554 25.2211802,5.20411285 C25.7126003,5.59721278 26.1652903,5.83123725 26.5324722,6.00458872 C26.8996542,6.15958532 27.2939975,6.2503399 27.5998147,6.34721278 C28.2350897,6.54401768 28.813527,6.86369816 29.0293092,8.05268525 C28.8291196,9.30387492 27.6692272,8.9296397 27.2779018,9.41961251 C26.3941503,8.55081577 26.7331648,7.55302515 26.1879248,6.86522774 C26.3121631,7.2256968 26.3785576,7.58922502 26.4711076,7.9435758 C26.2492895,7.85791978 25.9847173,7.67946975 25.7689351,7.46023114 C25.5360512,7.25118967 25.3514543,7.00645819 25.3016584,6.75152957 C25.275503,7.29656696 25.9424663,8.21380014 26.5918249,9.39004079 C27.2582852,10.5448674 27.9549249,11.8888511 28.1425397,12.992692 C28.5544877,13.2002039 29.1037516,13.6544867 29.2526363,13.2272264 L28.8432033,12.6755608 C29.1369488,11.8082937 30.2309497,13.3970088 30.1087234,12.4838545 C30.9381521,13.0870156 32.0462367,13.6978246 32.2720787,15.0382393 L31.5422418,15.664344 C31.7736167,15.5220938 31.6785518,14.6558464 31.2640889,14.4544528 C31.8696876,14.764446 30.988954,16.7870496 32.3248925,16.8008158 L32.5235731,15.700034 C33.3338883,16.3342964 34.708557,16.9695785 34.9112615,18.1560163 C35.5294349,17.2933379 34.708557,17.957172 35.3448379,16.7523793 C34.4374459,17.9638001 34.1542632,14.0169952 33.3685945,15.6653637 C34.1240839,14.3601292 33.2282606,14.1118287 33.6794417,12.6332427 C33.4219113,12.8025153 33.3313733,13.2522094 33.0320949,12.3003059 C32.9325031,12.3008158 32.7851274,12.2584976 32.6966013,12.2289259 C32.6905655,12.1983345 32.6905655,12.1860979 32.6875475,12.1590755 C32.6845296,12.1825289 32.6820147,12.2003739 32.6789967,12.2243372 C32.619644,12.207002 32.6095843,12.2075119 32.6769848,12.2477906 C32.6608891,12.5190347 32.6010334,12.7617267 32.482831,12.9080557 C31.6488754,12.7877294 30.9597806,11.3947995 30.3954271,11.1011217 C30.2485543,10.517845 30.8199497,11.1495581 30.9567627,10.7131203 L30.1057055,10.2761727 C30.671568,9.88307274 30.3385893,8.33871516 31.3566389,9.3767845 C31.1725449,9.00254929 30.9633016,8.6232155 30.761603,8.24541128 C30.7409805,7.81968049 30.6338438,7.35825969 30.4306363,6.94017675 C30.2259198,6.52056424 29.9950479,6.17641061 29.6600573,5.95003399 C29.5312921,5.62576479 29.1344339,5.37797417 28.8718737,5.24184228 C28.5957328,5.09755269 28.4287404,5.04350782 28.8517541,5.15210741 L27.8945662,4.27005438 C27.5067618,3.95802175 27.0978318,3.65873555 26.6959436,3.38341264 L26.63307,3.34874235 L26.7175722,3.19833447 C26.5717054,3.08259687 26.4177908,2.96940857 26.2648822,2.86488783 C26.1300811,2.77260367 25.9917592,2.68337865 25.8514253,2.59823249 C25.5727694,2.42233175 25.2599103,2.30761387 24.957111,2.17556084 C24.3515123,1.90380693 23.6981297,1.76461591 23.0683876,1.57545887 C21.780736,1.25475867 20.5539461,0.993201903 19.2084507,0.26971448 C18.3709742,0.40278722 17.5601561,0.579197825 16.2217026,0.555234534 L15.8806761,0 C15.6231458,0.078518015 15.2997239,0.130013596 14.9461227,0.168762746 C14.5935275,0.207002039 14.206226,0.214649898 13.8491039,0.276852481 C13.4894668,0.329877634 13.1484404,0.393099932 12.8838682,0.489972808 C12.6238229,0.601631543 12.439729,0.741332427 12.3874181,0.926410605 C11.5811269,0.363018355 10.2693318,0.822399728 9.07020629,1.65346703 C7.87057774,2.48810333 6.80373826,3.70819171 6.07289538,4.27005438 L6.56230359,4.86913664 C5.66195344,5.73997281 5.03875018,6.81781101 4.50155803,8.24184228 L5.1197314,8.53806934 C5.02567247,9.21210061 4.53475529,9.81118287 3.99152727,10.5224337 C3.71538636,10.8742352 3.44930523,11.2591774 3.18573904,11.6655337 C2.95285518,12.0800476 2.71946832,12.5185248 2.59422408,12.9881033 C2.37944782,12.7795717 2.61585261,12.3263086 2.88394569,12.053535 C1.7451788,12.8851122 1.66419759,14.235724 1.75926249,15.4619307 C1.83923773,16.7095513 2.10280392,17.8470428 1.48714549,18.839225 C1.70846061,19.3674371 1.6048449,19.7279062 1.4413735,20.089395 C1.43986454,20.0414684 1.42728981,19.9986404 1.40616428,19.9614208 C1.39761347,20.0139361 1.3961045,20.0924541 1.39761347,20.1735214 C1.28242901,20.4009177 1.14461005,20.6395309 1.04149732,20.9005778 C1.20044182,20.6767505 1.33876377,20.467709 1.40012841,20.2872196 C1.40566129,20.6854181 1.51732483,21.2890891 1.71852039,21.8626785 L1.01131799,22.1660435 C1.02540167,22.2134602 1.02741363,22.2516995 1.04451525,22.3006458 C0.830744967,22.9058464 1.42879878,22.7258668 1.94587138,22.3776343 C2.09224115,22.653467 2.25722151,22.9002379 2.45338719,23.0791978 C1.8995964,23.3698165 2.04747514,23.7348742 2.18780904,24.1101292 C2.33669376,24.4858939 2.48658446,24.8672672 1.92424286,25.2935078 C2.26426336,25.4235214 2.50670401,26.1021414 2.86835304,26.7231475 C3.21793033,27.3497621 3.68269208,27.9121346 4.33406272,27.8652277 C4.17863915,27.9299796 4.14544188,28.1063902 4.05641284,27.8290279 C4.07904734,28.4469748 4.12431634,29.0746091 4.64038297,29.4621006 L3.85119337,30.0112169 C4.38234966,30.2946975 4.92758963,30.5531951 5.46377581,30.8030252 C5.22133516,31.7360639 5.05635479,32.1837186 4.09514299,31.710571 C4.96028391,32.4029572 5.20825744,32.7042828 5.44063832,32.9852141 C5.66899528,33.2641061 5.89483731,33.5098572 6.7157152,33.9932019 L6.14281084,34.1843984 C6.40939496,34.6957852 7.52150344,35.1403807 7.2373147,35.6675731 C7.01650257,36.4955812 7.71163325,37.9134942 8.59538476,39.4823249 C9.02191935,40.2797417 9.5143455,41.1062203 9.94641297,41.9444256 C10.3674147,42.7912984 10.7516982,43.6325629 10.9800552,44.4549626 C12.0997085,42.9386472 11.1470475,46.1624745 12.3542209,45.4869137 C12.1183191,45.8789939 12.1832046,46.3863018 11.5861568,46.1640041 C12.8652576,47.2775323 12.4668904,48.6082597 14.0749459,48.8290279 C13.8511159,49.2328348 13.3752884,48.9121346 13.2761995,49.1956152 C13.4275992,49.2491502 13.8777743,49.4005778 13.7806974,49.6896669 C13.6826146,49.9756968 13.3571808,49.7064922 13.0558904,49.603501 C14.119209,50.9316791 15.2373533,50.2780421 16.2669716,49.6295037 C16.3283362,50.6466689 16.6532671,50.9352481 17.6421433,50.9184228 C17.5113662,51.3956492 17.4892347,52.0452073 16.74632,51.3145819 C17.0395626,51.8229096 18.517344,54.4649898 19.2934559,53.8883413 C19.2164986,54.1911965 19.7557027,54.5577838 19.9377847,54.6021414 C20.7299922,55.6310333 20.7284832,55.7870496 21.6303423,56.6889871 L21.5181758,56.317811 C22.7243432,55.9226717 22.4044423,56.9413664 23.1805542,57.621516 L23.0719086,57.6796397 C23.9989171,60.0081577 24.0396592,58.1619646 24.8710999,60.5440177 L25.320269,59.9541128 C26.6089266,59.0440177 26.0224415,62.0960231 27.3729667,62.6701224 L27.3437934,62.0297417 C28.2275449,62.1908566 27.2024535,64.9960911 27.5696354,65.6752209 C27.5822101,65.8878314 27.2386687,65.6415704 27.0128267,65.5477566 C27.676772,67.5989123 27.8694168,65.0669613 29.0162315,65.953603 C28.8311316,66.5052685 27.8442673,66.6204963 28.4438301,67.3888511 C28.4619377,67.7080218 29.2430795,67.9292998 30.0488677,68.2617267 C30.4512588,68.4294697 30.8586799,68.6283141 31.1790838,68.8873215 C31.2223408,68.9230116 31.2500052,68.9454453 31.3023161,68.9954113 L31.4647815,69.1595853 C31.5699062,69.2707342 31.66648,69.3859619 31.7565151,69.5057784 C31.9370881,69.746431 32.0844638,70.0064582 32.1936124,70.2950374 C32.0990505,69.6296737 32.0945236,69.057104 32.9259643,69.4828348 C33.4581265,69.9279402 33.937978,70.9573419 34.569732,71.9434058 C35.1843845,72.9126445 35.9353469,73.8186608 36.4956766,73.4979606 C36.611364,73.7712441 36.6495912,73.9588715 36.6430523,74.092964 C37.0238149,74.2780421 37.5851505,74.6777702 38.1112769,75 C38.7309593,74.0098572 39.287265,73.0090075 39.423575,72.2814412 C39.9979883,73.5382393 41.194096,71.6961251 42.0265426,70.2282461 C42.8891686,68.7348742 43.4525162,67.5224337 44.3282199,68.2816111 L45.7899056,66.3614888 L45.9292336,66.564412 C47.0358092,65.4789259 46.9638817,64.699864 46.8778706,63.9187627 C47.222921,63.7438817 47.22443,64.0849762 47.2993753,64.1859279 C49.085489,62.739463 49.1513805,62.4773963 49.4204796,60.2707342 L50.1306999,60.5837865 C50.1176222,60.2447315 50.8414232,59.7726037 51.6582772,59.0909245 C52.4786521,58.4158736 53.3533499,57.4828348 53.6596701,56.3208702 C53.7160049,56.3886812 53.8065429,56.5120666 53.7879323,56.7190687 C54.1485753,55.4163834 55.4467897,54.4869137 56.3964328,53.5130863 C56.8747752,53.0317811 57.2867231,52.564242 57.4506975,52.0650918 C57.611654,51.5628824 57.5397265,51.0453773 57.0769768,50.4875935 C57.1695267,49.8874915 57.2731424,49.3011557 57.3485908,48.7020734 C56.0810587,50.4442556 56.4955216,47.8271584 55.657542,48.3518015 C55.9346889,47.5615228 57.4164943,46.8798436 57.0462944,47.8531611 L56.8496258,47.9265806 C57.8973517,48.9722978 58.5839315,45.8422842 59.3836839,46.3327668 C61.2784431,42.4879334 63.5750905,38.8740653 64.7364919,34.8059143 L63.5469231,34.9772264 C63.6932929,34.5239633 63.8346327,34.0676411 63.959374,33.6046907 C64.2948676,33.2982665 64.9180709,33.3013256 64.6338821,34.3118627 C65.000058,34.1211761 64.9749086,33.6556764 64.8260239,33.2406526 C64.6731153,32.8220598 64.3874176,32.4503739 64.2742451,32.4126445 C64.6897139,31.4673691 64.9693757,31.710571 65.1605115,32.1363018 C65.3506413,32.5599932 65.4512391,33.1621346 65.5266874,32.8506118 L65.6157165,31.9818151 L65.4512391,32.1495581 C65.1298292,31.3720258 64.6796541,31.2404827 64.9044902,30.0050986 C65.2218762,29.2413324 65.6308061,29.6787899 65.7117874,29.3672672 C65.7892476,29.378484 65.8425645,29.2744731 65.7892476,28.8783141 L65.9144919,27.9299796 L66,26.9688987 C65.7002186,27.2171992 65.3999342,27.4583617 65.1001528,27.6913664 C64.7083245,26.8419443 65.2027626,25.9476547 64.1932638,26.7720938 C64.9688727,26.1847383 65.1258053,24.4048266 64.8758198,22.6932359 C64.6575226,20.9745071 64.0287865,19.3995581 64.1258633,18.9401768 C63.1198855,17.992862 62.7476737,16.9654997 62.0243757,15.6235554 C62.055058,16.0523453 61.3196882,16.6932359 60.7945678,15.6230455 C61.7653364,15.2381033 61.6154457,14.6410605 61.2598325,13.8992182 C61.0681937,13.5458872 60.8156933,13.1767505 60.6371323,12.7734534 C60.4595772,12.3681169 60.3091835,11.975017 60.3630033,11.5074779 C60.3730631,12.21414 59.6769264,11.5462271 58.9174132,11.1118287 C58.5487223,10.8778042 58.1810374,10.6779402 57.9199862,10.6830387 C57.6634618,10.6789599 57.5412355,10.8538409 57.6347915,11.335656 C56.8616975,10.6111489 58.0210869,10.6733515 57.5930434,9.80455472 C56.2606258,9.44612508 55.0886616,8.66145479 53.6335147,8.02923182 C52.2090501,7.38936098 50.4943609,6.85248131 48.7007024,7.09925221 C48.674547,7.37202583 49.2484574,7.73351462 48.5628835,8.19646499 C48.2565632,8.00118967 47.9331414,7.80132563 47.5951328,7.62185588 C47.2571243,7.46278042 46.9020141,7.30982325 46.5308083,7.16400408 C46.1857579,7.31084296 46.1238903,7.71719918 45.9795324,8.04554725 C45.8271268,8.36930659 45.6103386,8.57171992 44.8352327,8.36522774 C45.0962839,8.50798776 45.456424,8.73793338 45.0701285,8.97297757 C43.4057382,9.35486064 41.9500883,10.3174711 40.78416,11.5824269 C39.6016331,12.8504419 38.879844,14.4233515 38.3426518,15.939157 C38.0559482,16.7044528 37.882417,17.471278 37.6641198,18.2304555 L37.1440293,20.489123 C36.9503785,21.2401428 36.8004878,21.9758668 36.5640831,22.7233175 C36.3679174,23.460571 36.0968064,24.2115908 35.8090967,24.9575119 C36.3201334,24.1493882 36.3724443,24.6913664 36.3945758,25.2996261 C36.5157961,24.9019375 37.0504733,25.3021754 37.4101104,25.2195785 C37.0786407,26.0266825 36.7853982,26.8450034 36.5017124,27.6735214 C37.5147321,28.0452073 36.7758414,30.239123 37.7632086,30.3793338 L37.516744,29.6543168 C38.1238517,30.092794 38.7128517,29.6742012 39.334043,29.1725017 C39.9507074,28.6672332 40.6136468,28.0808973 41.3419747,28.0936438 C40.6669636,27.625085 41.0864563,26.8908906 41.4702369,26.1230455 C41.6518159,25.735554 41.8349038,25.3404147 41.8555264,24.9401768 C41.8691071,24.5363698 41.7277672,24.1310333 41.2906698,23.7027532 C41.599002,23.3509517 41.7448688,24.0280421 42.0869013,23.8444935 C41.4787877,23.4167233 41.3661182,22.8844324 41.7302821,21.99983 L41.87464,22.1181169 C41.8852027,21.4741672 41.9963633,20.950034 42.1045059,20.4646499 C42.2564085,20.0022094 42.3881916,19.560673 42.6090038,19.1696125 C42.8192531,18.7729436 43.0345324,18.3711761 43.323248,17.9847043 C43.5792694,17.5696805 43.9187869,17.1852481 44.2698731,16.7416723 C44.0364863,16.664174 43.7940456,16.5846363 43.5631737,16.5239633 C43.9213018,16.1334126 44.1692754,16.1777702 44.4333445,16.0885452 C43.8609432,14.9546227 43.6270533,17.2530591 42.8826297,16.1884772 C43.2825059,16.1940857 43.6325862,16.0385792 43.9102361,15.7658056 C44.0420192,15.6199864 44.2085085,15.4976207 44.3513573,15.3446635 C44.503763,15.2024133 44.6234743,15.0163154 44.7894607,14.8842624 C45.3975743,14.3091434 46.1636264,13.8941196 46.7219441,14.5288919 C47.0000969,14.3978586 46.8668049,14.2260367 46.7279799,14.064412 C46.588652,13.8997281 46.4422822,13.7442216 46.7616802,13.5790279 C46.8813916,13.685588 46.996073,13.7941876 47.1067306,13.9038069 C47.0820841,13.7049626 47.0654855,13.5086676 47.0529108,13.307274 C47.5508698,13.2328348 47.9074889,13.6947655 48.0196555,14.0791978 C47.902459,14.0399388 47.7887836,14.2770224 47.7032754,14.3341264 C48.0131166,14.4717879 48.3370415,14.3978586 48.628775,14.2194086 C48.9391192,14.1092794 49.2268288,13.9369477 49.3234027,14.014446 L48.6800799,13.7962271 C49.5422029,13.4520734 50.6784548,13.5769884 51.7724557,13.8910605 C52.8800373,14.203603 53.9589485,14.6609449 55.1057632,14.9398368 L55.1585771,14.5650918 C55.6183089,14.6640041 55.8723183,14.8506118 56.068987,14.9959211 C56.2636437,15.1478586 56.3657504,15.3099932 56.4482406,15.4945615 C56.5357607,15.6745411 56.6177479,15.8626785 56.7756864,16.0727396 C56.929098,16.2863698 57.1217428,16.5494562 57.4924456,16.8512916 L57.385309,16.8518015 C57.6378094,16.8839225 57.8540946,16.9950714 58.063338,17.1414004 C58.2720784,17.2882393 58.4551664,17.4824949 58.5597881,17.7246771 C58.2720784,17.6216859 58.2232885,17.9245411 58.1513611,18.1932359 C58.0809426,18.4654997 57.9868837,18.7025833 57.654408,18.57155 C58.019578,18.8269884 58.2333483,19.0763086 58.4104003,19.1971448 C58.5839315,19.328688 58.7031399,19.3817131 58.8303961,19.4097553 C59.0818905,19.4745071 59.3499836,19.4174031 60.1854482,19.8288579 C60.0491382,19.9920122 59.9118222,20.1510877 59.7624345,20.3111829 C60.0677488,20.4447655 60.2895669,20.5064582 60.4907625,20.6538069 C60.5913603,20.7282461 60.6869282,20.8240993 60.78652,20.96431 C60.876052,21.1075799 60.965584,21.2957172 61.0636668,21.5506458 C60.7276703,21.1769205 60.5626899,21.4038069 60.3715541,21.6067301 C60.1819273,21.8137322 59.9651391,21.9937118 59.5521852,21.6291638 C59.4626531,21.9202923 59.4279469,22.1716519 59.425935,22.4010877 C59.4113483,22.6346023 59.4359947,22.8431339 59.4847847,23.03586 C59.5949392,23.4167233 59.7498598,23.753739 59.9108163,24.0581237 C60.0747906,24.3609789 60.1799153,24.6480286 60.1592928,24.9197825 C60.1361553,25.1915364 59.9721809,25.4510537 59.5209999,25.7029232 C60.2945968,26.1811693 60.5209418,25.7171992 60.558666,25.1782801 C60.5898513,24.6454793 60.4641041,24.0667913 60.647695,24.3344663 C60.8785669,24.0754589 61.1894141,24.2523793 61.4137471,24.6082597 C61.645122,24.960571 61.8000426,25.4867437 61.7160435,25.8543508 C61.7034687,26.2275663 61.2135575,26.5426581 60.7025208,26.9638001 C60.2055678,27.3880014 59.6920161,27.9065262 59.6180767,28.7753229 C59.6482561,28.6024813 59.5330716,28.5780082 59.5521852,28.407206 C59.0939623,29.0011897 59.9384807,29.760877 59.1658897,30.4629504 C60.0174499,31.0844663 58.9113773,31.4887831 60.058695,31.8691366 C60.0818325,31.2991162 60.0989341,30.7331747 60.0888743,30.171312 C60.1728735,30.6602651 60.513397,31.1915364 60.6969879,31.7946975 C60.8906387,32.3947995 60.9162911,33.0693406 60.3846318,33.7647859 C60.1884661,33.5797077 59.9998453,33.0387492 59.8967326,32.6828688 C59.4561143,33.0458872 59.9072953,33.6077498 59.4344858,33.9768865 C58.8711382,33.746431 58.9551373,33.2442216 59.062274,32.6425901 C59.1824883,32.042998 59.3273491,31.335826 58.9742509,30.7683549 C58.6794994,30.9529232 58.8022287,31.446465 58.8495097,31.8115228 C58.8842159,32.1765806 58.8520246,32.3988783 58.2776113,32.0093474 C58.9983944,32.5416383 58.8515216,32.9704283 58.6176318,33.4287899 C58.3963167,33.8932699 58.0889904,34.3817131 58.5125071,35.1633243 L57.8525856,34.8665874 C57.9059025,35.0842964 58.0889904,35.5763086 57.9551954,35.914344 L57.2852142,35.003739 C57.5004934,35.5961931 57.1790835,35.9989803 56.8214584,36.3701564 C56.4668512,36.7443916 56.0709989,37.0854861 56.0881006,37.6014616 C56.4537735,36.6796397 56.6519511,36.6373215 56.9210502,36.7688647 C57.1775745,36.8968389 57.4496915,37.1900068 57.8339751,36.8738953 C57.8656634,37.5520054 57.7132577,37.9333787 57.4849008,38.1628144 C57.2580528,38.3937797 56.9522355,38.4758668 56.6268017,38.5559143 C55.9638623,38.7149898 55.2767794,38.8745751 54.8557777,40.1884772 C54.9146274,39.8111829 55.8260433,39.0871856 55.8899229,39.753569 C55.5363217,40.1777702 54.9996326,40.6988443 54.5283319,40.8293678 C53.9116675,42.5567641 55.3114857,40.8930999 55.387437,41.7950374 C54.3341782,41.9816451 55.3029349,42.7673351 55.1832235,43.6402107 L54.5328588,43.3082937 C53.8568418,44.1475187 54.115881,44.4468049 54.3819622,44.7256968 C54.6495523,45.0030591 54.9166394,45.2559483 54.2003832,45.9692386 L53.711478,44.7583277 L53.4564626,45.7632563 L52.8347683,45.1702923 C52.8579058,46.4255608 52.5279451,46.6402107 51.7860364,47.4299796 C52.350893,47.4865738 52.8443251,48.2457512 52.3674916,49.0829368 C51.6482175,49.3990483 51.9796871,48.4012576 51.3353584,49.5973827 C51.1165582,49.0870156 50.8192917,48.5042488 51.6919775,48.3686268 C51.5214642,48.189157 51.4570817,47.8674371 51.2885804,47.6905167 C50.5270552,48.0193746 50.263489,49.0926241 50.0140065,49.5086676 C50.1372388,49.3674371 50.2906504,49.2022434 50.4395351,49.1629844 C50.3681107,49.8900408 50.3112729,50.6339225 50.2101722,51.3635282 C49.80929,51.4629504 49.7670389,51.1335826 49.7257938,50.8123725 C49.5678553,51.1835486 49.6880697,51.6021414 49.4089108,52.1216859 C49.0090346,51.6541468 48.4884411,51.3278382 48.71881,50.4957512 L48.2133062,52.4026173 C47.9306264,52.3531611 47.0810782,52.7574779 47.0458689,52.4326988 C46.6052506,52.7437118 46.4704496,53.4233515 46.2954095,54.135622 C46.1062857,54.8402447 45.8759167,55.5764786 45.2798749,55.9823249 C45.3271558,56.1102991 45.3281618,56.2933379 45.2175042,56.5798776 C44.3020644,57.5195445 43.0455981,57.960571 42.688476,59.6777702 L41.3193402,59.6711421 C40.736879,60.7647859 43.1039449,59.6181169 42.1221105,61.4413664 C41.4571592,62.7675051 41.0859533,61.2618967 40.5376954,61.4546227 C40.512546,61.9027872 40.513552,62.5462271 40.3193983,63.1305235 C40.2228244,63.4226717 40.0809815,63.7010537 39.8682172,63.9335486 C39.8154034,63.9911625 39.7580626,64.0467369 39.695692,64.0982325 C39.6650097,64.1237254 39.6308064,64.1507478 39.5996211,64.1721618 C39.5810105,64.1787899 39.561394,64.1843984 39.5407714,64.1889871 C39.4577782,64.2053025 39.3576835,64.2032631 39.242499,64.1706322 C39.2274093,64.0334806 39.2636245,63.9743372 39.3129174,63.9238613 C39.4321258,63.7902787 39.5749747,63.6526173 39.6760754,63.4726377" id="Fill-116" fill="#FF2020"></path>
                    <path d="M20.467,48 C20.374,48.279 20.191,48.481 20,48.68 C20.33,48.707 20.553,48.536 20.467,48" id="Fill-118" fill="#FF2020"></path>
                    <path d="M45.085,56.292 C45.112,56.275 45.127,56.25 45.152,56.231 C45.113,56.14 45.06,56.065 45,56 L45.085,56.292 Z" id="Fill-120" fill="#FF2020"></path>
                    <path d="M12,9 C11.5994648,9.147 11.2765388,9.125 11,9.042 C11.2033898,9.313 11.5209634,9.391 12,9" id="Fill-122" fill="#FF2020"></path>
                    <path d="M36,14.8786232 L35,14 C35.3971119,14.4522947 35.2608303,14.7022947 35.2364621,15 C35.4972924,14.8913043 35.767148,14.5785024 36,14.8786232" id="Fill-124" fill="#FF2020"></path>
                    <path d="M33.0133549,24.4949091 C33.2478326,24.6268698 33.2064542,24.8695561 33.4409318,25 L34,24.7755152 C33.6055259,24.0133285 32.8938173,23.6288224 33.0133549,24.4949091" id="Fill-126" fill="#FF2020"></path>
                    <path d="M33.2734186,17 C32.692727,17.2560289 33.1583916,17.5860129 33.5512614,18 C33.5323681,17.9734727 33.5112521,17.9497588 33.5012497,17.920418 C34.444804,17.7721061 33.8652238,17.3802251 33.2734186,17" id="Fill-128" fill="#FF2020"></path>
                    <path d="M33,19 C33.208,19.3147605 33.396,19.6471163 33.495,20 C34.178,19.8572825 33.436,19.5317693 33,19" id="Fill-130" fill="#FF2020"></path>
                    <path d="M31.2675885,9.82804679 C31.272567,10.3290514 31.9713641,9.53573243 31.8441866,9.93091184 C32.6140401,9.82952686 30.2261818,7.95575483 31.2675885,9.82804679" id="Fill-132" fill="#FF2020"></path>
                    <polygon id="Fill-134" fill="#FF2020" points="31.148415 18 32 17.09797 31 17"></polygon>
                    <path d="M30,14.0132489 L30.4170177,14.8908159 C30.5964617,14.8280351 30.8011794,14.8985498 31,15 C30.5871946,14.5009378 30.3176074,13.903155 30,14.0132489" id="Fill-136" fill="#FF2020"></path>
                    <path d="M31,14 C31.256,14.4388932 31.536,14.8416603 31.91,15 C31.748,14.7709454 31.392,14.2820907 31,14" id="Fill-138" fill="#FF2020"></path>
                    <polygon id="Fill-140" fill="#FF2020" points="31.45 17 31.492 16.6623578 31 16"></polygon>
                    <path d="M22.9989717,5.58181818 C22.8436974,5.46507177 22.6913848,5.34258373 22.5369567,5.23923445 L22.0656336,5 C21.8959743,5.37320574 22.0702876,5.86698565 22.4155296,6 C22.6723457,5.93205742 23.0213955,6.1569378 22.9989717,5.58181818" id="Fill-142" fill="#FF2020"></path>
                    <path d="M24.7404427,9 C24.7008719,8.56425406 24.8638498,8.40029542 25,8 L24,8.82717873 C24.2421194,8.8788774 24.4909457,8.9254062 24.7404427,9" id="Fill-144" fill="#FF2020"></path>
                    <path d="M22.8067123,6 C22.7025538,6.1743738 22.3502817,6.18786127 22.1527735,6.29672447 C21.939052,6.45086705 21.9051513,6.5539499 22.3434033,7 C22.5237155,6.62138728 23.3761452,7.10597303 22.8067123,6" id="Fill-146" fill="#FF2020"></path>
                    <path d="M8.85534864,9 L9,8.83257167 L8,8 C8.28020788,8.33859576 8.56517973,8.67220607 8.85534864,9" id="Fill-148" fill="#FF2020"></path>
                    <path d="M8.95781664,20.8878397 C9.21690146,20.1219861 8.18335233,20.7407329 8.53889642,20.0291553 C8.24553269,19.8431195 8.24912002,20.6153365 8,20.4334182 C8.32325813,20.9054326 8.179765,21.1614658 8.95781664,20.8878397" id="Fill-150" fill="#FF2020"></path>
                    <path d="M8.481,20.657 C8.347,20.453 8.193,20.235 8,20 C8.184,20.379 8.35,20.552 8.481,20.657" id="Fill-152" fill="#FF2020"></path>
                    <polygon id="Fill-154" fill="#FF2020" points="35.47 29 35 30 35.916 29.3194131"></polygon>
                    <path d="M37,31 L36,31.4411348 L36.9888771,32 C36.9205508,31.741844 36.7865466,31.2382979 37,31" id="Fill-156" fill="#FF2020"></path>
                    <path d="M35.4919246,59 L35.0689246,59.1440678 C34.8749246,59.4636804 35.1059246,59.6416465 35.5679246,60 L35.4919246,59 Z" id="Fill-158" fill="#FF2020"></path>
                    <path d="M38.058,64 L38,64.002574 C38.079,64.3466323 38.18,64.6791077 38.305,65 C38.212,64.6718147 38.129,64.3384813 38.058,64" id="Fill-160" fill="#FF2020"></path>
                    <path d="M39.6623863,59 C39.3967261,59.2639752 39.2676767,59.734472 39,60 C39.3957179,59.2644928 40.5732935,59.6537267 39.6623863,59" id="Fill-162" fill="#FF2020"></path>
                </g>
                <circle id="Oval-3" stroke="#000000" fill="#F8E5D9" cx="71.5" cy="43.5" r="43.5"></circle>
                <text id="Fair" font-family="CenturyGothicProGrk-Regular, Century Gothic Pro Grk" font-size="20" font-weight="normal" letter-spacing="1" fill="#000000">
                    <tspan x="53.31" y="130">Fair</tspan>
                </text>
            </g>
        </g>
    </g>
</svg>