<?xml version="1.0" encoding="UTF-8"?>
<svg width="324px" height="69px" viewBox="0 0 324 69" version="1.1" xmlns="http://www.w3.org/2000/svg" xmlns:xlink="http://www.w3.org/1999/xlink">
    <!-- Generator: Sketch 49.3 (51167) - http://www.bohemiancoding.com/sketch -->
    <title>Group 4</title>
    <desc>Created with Sketch.</desc>
    <defs>
        <polygon id="path-1" points="0 0 324 0 324 27 0 27"></polygon>
    </defs>
    <g id="Page-1" stroke="none" stroke-width="1" fill="none" fill-rule="evenodd">
        <g id="Quiz-2" transform="translate(-559.000000, -193.000000)">
            <g id="Group-4" transform="translate(558.000000, 195.000000)">
                <text id="Beauty-Profile-Quiz" font-family="SephoraScriptALPHA04-Collection, Sephora Script ALPHA04" font-size="35" font-weight="normal" letter-spacing="1.79999995" fill="#000000">
                    <tspan x="14.9700004" y="28">Beauty Profile Quiz</tspan>
                </text>
                <g id="Page-1" transform="translate(1.000000, 40.000000)">
                    <mask id="mask-2" fill="white">
                        <use xlink:href="#path-1"></use>
                    </mask>
                    <g id="Clip-2"></g>
                    <path d="M181.515196,5.49106629 C158.956366,6.8767532 136.34415,8.48974077 115.071449,9.78295443 C109.752819,10.1041401 104.516695,10.4006193 99.3921978,10.6914511 C94.266487,10.9745181 89.2426959,11.2095837 84.3554044,11.4502965 C83.1335815,11.5074746 81.9196453,11.5646527 80.7142024,11.6225368 C79.5075461,11.6698322 78.3099898,11.7171277 77.1209268,11.7644232 C74.7440142,11.8561905 72.4022881,11.9458402 70.0999953,12.0347839 C68.9485455,12.0771381 67.8068024,12.1201981 66.6753726,12.1625523 C66.109961,12.1830235 65.5463694,12.2042005 64.9858111,12.2246717 C64.4246462,12.2402016 63.8659079,12.2543196 63.310203,12.2698495 C61.0867766,12.3256158 58.9046033,12.3799703 56.7673233,12.4336189 C48.2188098,12.687038 40.3776674,12.6835084 33.4368156,12.7209213 C32.5686783,12.7286862 31.7157076,12.7188036 30.8760836,12.7060973 C30.0376728,12.694097 29.2126087,12.6828025 28.4021046,12.6708022 C26.7829162,12.6446838 25.2219678,12.6199772 23.7210791,12.5945647 C20.722335,12.5366807 17.9686836,12.4929147 15.4856046,12.4067946 C5.56178205,11.9698409 -0.060180522,11.5222986 0.000485956542,11.105816 C0.0611524351,10.6893334 5.78867468,10.3547356 15.7106772,10.1133169 C18.1943629,10.0229613 20.943161,9.92201726 23.9340184,9.81330825 C25.4288404,9.76530687 26.9837223,9.71377597 28.596844,9.66153918 C29.4031015,9.63753849 30.2233122,9.61283189 31.058083,9.5874194 C31.8928537,9.56483051 32.7415778,9.53871211 33.6048618,9.49635796 C40.514167,9.17940766 48.2922162,8.93728305 56.7855232,8.47774042 C58.9076366,8.37609044 61.0740366,8.27232275 63.2816897,8.16714326 C63.8337547,8.14102486 64.3876396,8.11420056 64.9445579,8.08808216 C65.5020829,8.05631654 66.0620345,8.02455092 66.6244127,7.9920794 C67.7485626,7.92854816 68.8830257,7.86501692 70.0271955,7.80007388 C72.3155351,7.6744232 74.6414879,7.54524302 77.0038405,7.41535693 C78.1850169,7.35111979 79.3746865,7.28688265 80.5734561,7.2212337 C81.7722257,7.14923163 82.9800953,7.07581775 84.1958516,7.00310978 C89.0600898,6.70945427 94.0553677,6.40732794 99.1604518,6.09884848 C104.268569,5.77836867 109.486493,5.45082984 114.79117,5.11834969 C136.017158,3.77784055 158.683974,2.32226927 181.37081,1.35377083 C184.291901,1.23659099 187.155966,1.12152886 189.966037,1.00787853 C191.370466,0.952112222 192.761548,0.896345912 194.139891,0.841991407 C195.517626,0.785519195 196.885049,0.754459478 198.237911,0.710693514 C200.944243,0.628808806 203.600221,0.549747708 206.210093,0.471392514 C208.818752,0.394449124 211.380697,0.30550539 213.900783,0.274445673 C216.420262,0.230679708 218.896667,0.186913744 221.334246,0.144559584 C222.553036,0.123382505 223.761512,0.102205425 224.960282,0.0817342482 C226.159658,0.0647925845 227.349328,0.0309092571 228.529897,0.035144673 C233.250356,0.0245561332 237.828855,0.0132616907 242.295121,0.00267315088 C242.852646,0.00337905353 243.408958,-0.00367997302 243.964056,0.00267315088 C244.517941,0.0104380801 245.070006,0.0189089119 245.620251,0.0273797438 C246.721348,0.0436155049 247.816378,0.0605571686 248.904734,0.0767929296 C251.081447,0.109264452 253.233287,0.141735974 255.364501,0.174207496 C259.627534,0.222914779 263.801388,0.328800177 267.923069,0.488334177 C276.162183,0.801049053 284.188965,1.30647535 292.093807,2.26791477 C296.041981,2.7542817 299.967103,3.32112153 303.842477,4.11243841 C307.703292,4.9086966 311.54166,5.91249018 315.012389,7.40547429 C315.884773,7.77113187 316.712871,8.18549673 317.523981,8.61468554 C318.316286,9.06434553 319.095243,9.53024128 319.783808,10.0540211 C320.494819,10.5643887 321.117257,11.1284049 321.692375,11.71501 C321.961128,12.0171363 322.24626,12.3136155 322.471939,12.6340953 C322.724919,12.9446924 322.921478,13.2750549 323.124104,13.6040055 C323.877582,14.9325143 324.225807,16.4198512 323.843609,17.9163648 C323.651296,18.6582685 323.317023,19.4022899 322.783765,20.097604 C322.26082,20.7950358 321.588029,21.4479958 320.811498,22.048719 C320.036787,22.6515598 319.13953,23.1873399 318.188279,23.6793541 C317.716901,23.9292436 317.210942,24.1508971 316.708624,24.3767859 C316.189926,24.586439 315.674261,24.8003275 315.130689,24.9859799 C312.981276,25.754002 310.624989,26.3010766 308.188017,26.6250859 C303.311039,27.2709868 298.136188,27.0747459 293.25011,26.094953 C290.807071,25.6050565 288.428945,24.9076247 286.263758,23.9603034 C284.109492,23.0143938 282.124485,21.8207124 280.764949,20.3072571 C280.090944,19.5533531 279.575886,18.7225057 279.32412,17.8380096 C279.062041,16.9563372 279.092981,16.0245457 279.377506,15.1104018 C279.921078,13.2729372 281.687079,11.5357107 284.151958,10.3469707 C281.715592,11.5611232 280.012078,13.3061146 279.526746,15.123108 C279.270127,16.0273693 279.266487,16.9429251 279.548586,17.8034204 C279.820372,18.6660334 280.349383,19.4721743 281.031881,20.2020776 C282.40901,21.6661197 284.394017,22.8125056 286.538578,23.7132374 C288.695877,24.6146751 291.053984,25.2676351 293.466083,25.7144714 C298.290281,26.6102619 303.358965,26.7225004 308.035138,26.0314217 C310.36837,25.6848235 312.599683,25.1271604 314.611384,24.369021 C315.119769,24.1854863 315.599034,23.9758332 316.080726,23.7711214 C316.544218,23.5508798 317.01317,23.3362854 317.444508,23.0955726 C318.314466,22.6226178 319.127396,22.113662 319.812321,21.5524694 C320.499066,20.9926886 321.079644,20.394789 321.517656,19.7707711 C321.965981,19.148165 322.228667,18.4902637 322.371233,17.8358919 C322.651512,16.5215012 322.288727,15.2120518 321.556482,14.0310766 C321.35871,13.738127 321.170037,13.4437656 320.926158,13.1663459 C320.710185,12.8811612 320.435366,12.6164477 320.179353,12.3467929 C319.628502,11.8230131 319.03761,11.3175868 318.360572,10.8629855 C317.707194,10.394972 316.968276,9.98272488 316.221472,9.58388988 C315.444941,9.20058474 314.656277,8.82927995 313.818473,8.50315292 C310.494557,7.1689969 306.778735,6.28167727 303.006493,5.59271627 C299.225758,4.9072848 295.34007,4.43291821 291.445282,4.04114224 C283.644786,3.26959064 275.718711,2.94769903 267.547543,2.82275426 C263.462869,2.75639941 259.307215,2.74510496 255.062988,2.79169454 C252.942695,2.8065185 250.802382,2.82275426 248.637195,2.83828412 C247.554905,2.84604904 246.466548,2.85381397 245.372125,2.8615789 C244.824307,2.86510842 244.275882,2.86934383 243.72503,2.87357925 C243.174179,2.87922647 242.620294,2.89828584 242.065802,2.91028619 C237.626229,3.01687749 233.075637,3.1262924 228.384298,3.24064863 C227.212221,3.2604139 226.028012,3.31900382 224.836522,3.36135798 C223.644426,3.40724165 222.443836,3.45312533 221.232933,3.50042081 C218.811734,3.59289405 216.351102,3.68677911 213.848003,3.78278187 C211.346117,3.86537248 208.798732,4.00584711 206.20524,4.13361549 C203.612961,4.26350158 200.973363,4.39550537 198.284018,4.53033278 C196.939649,4.60021714 195.58254,4.65739526 194.21269,4.73998587 C192.841628,4.82116467 191.458432,4.90304938 190.061283,4.98563999 C187.266985,5.15152711 184.419907,5.31953195 181.515196,5.49106629" id="Fill-1" fill="#000000" mask="url(#mask-2)"></path>
                </g>
            </g>
        </g>
    </g>
</svg>