<?xml version="1.0" encoding="utf-8"?>
<!-- Generator: Adobe Illustrator 21.0.0, SVG Export Plug-In . SVG Version: 6.00 Build 0)  -->
<svg version="1.1" id="Layer_1" xmlns="http://www.w3.org/2000/svg" xmlns:xlink="http://www.w3.org/1999/xlink" x="0px" y="0px"
	 viewBox="0 0 130.8 32.8" style="enable-background:new 0 0 130.8 32.8;" xml:space="preserve">
<style type="text/css">
	.st0{clip-path:url(#SVGID_2_);}
	.st1{clip-path:url(#SVGID_4_);fill:#FFFFFF;}
	.st2{clip-path:url(#SVGID_6_);}
	.st3{clip-path:url(#SVGID_8_);fill:none;stroke:#FFFFFF;stroke-width:2;stroke-miterlimit:10;}
	.st4{clip-path:url(#SVGID_10_);}
	.st5{clip-path:url(#SVGID_12_);fill:#FFFFFF;}
	.st6{clip-path:url(#SVGID_14_);}
	.st7{clip-path:url(#SVGID_16_);fill:none;stroke:#FFFFFF;stroke-width:2;stroke-miterlimit:10;}
	.st8{clip-path:url(#SVGID_18_);}
	.st9{clip-path:url(#SVGID_20_);fill:#FFFFFF;}
	.st10{clip-path:url(#SVGID_22_);}
	.st11{clip-path:url(#SVGID_24_);fill:none;stroke:#FFFFFF;stroke-width:2;stroke-miterlimit:10;}
	.st12{clip-path:url(#SVGID_26_);}
	.st13{clip-path:url(#SVGID_28_);fill:#FFFFFF;}
	.st14{clip-path:url(#SVGID_30_);}
	.st15{clip-path:url(#SVGID_32_);fill:none;stroke:#FFFFFF;stroke-width:2;stroke-miterlimit:10;}
	.st16{clip-path:url(#SVGID_34_);}
	.st17{clip-path:url(#SVGID_36_);fill:#FFFFFF;}
	.st18{clip-path:url(#SVGID_38_);}
	.st19{clip-path:url(#SVGID_40_);fill:none;stroke:#FFFFFF;stroke-width:2;stroke-miterlimit:10;}
	.st20{clip-path:url(#SVGID_42_);}
	.st21{clip-path:url(#SVGID_44_);fill:#FFFFFF;}
	.st22{clip-path:url(#SVGID_46_);}
	.st23{clip-path:url(#SVGID_48_);fill:none;stroke:#FFFFFF;stroke-width:2;stroke-miterlimit:10;}
	.st24{fill:#FFFFFF;}
	.st25{clip-path:url(#SVGID_50_);}
	.st26{clip-path:url(#SVGID_52_);fill:#FFFFFF;}
	.st27{clip-path:url(#SVGID_54_);}
	.st28{clip-path:url(#SVGID_56_);fill:none;stroke:#FFFFFF;stroke-width:2;stroke-miterlimit:10;}
	.st29{clip-path:url(#SVGID_58_);}
	.st30{clip-path:url(#SVGID_60_);fill:#FFFFFF;}
	.st31{clip-path:url(#SVGID_62_);}
	.st32{clip-path:url(#SVGID_64_);fill:none;stroke:#FFFFFF;stroke-width:2;stroke-miterlimit:10;}
	.st33{clip-path:url(#SVGID_66_);}
	.st34{clip-path:url(#SVGID_68_);fill:#FFFFFF;}
	.st35{clip-path:url(#SVGID_70_);}
	.st36{clip-path:url(#SVGID_72_);fill:none;stroke:#FFFFFF;stroke-width:2;stroke-miterlimit:10;}
	.st37{clip-path:url(#SVGID_74_);}
	.st38{clip-path:url(#SVGID_76_);fill:#FFFFFF;}
	.st39{clip-path:url(#SVGID_78_);}
	.st40{clip-path:url(#SVGID_80_);fill:none;stroke:#FFFFFF;stroke-width:2;stroke-miterlimit:10;}
	.st41{clip-path:url(#SVGID_82_);}
	.st42{clip-path:url(#SVGID_84_);fill:#FFFFFF;}
	.st43{clip-path:url(#SVGID_86_);}
	.st44{clip-path:url(#SVGID_88_);fill:none;stroke:#FFFFFF;stroke-width:2;stroke-miterlimit:10;}
	.st45{clip-path:url(#SVGID_90_);}
	.st46{clip-path:url(#SVGID_92_);fill:#FFFFFF;}
	.st47{clip-path:url(#SVGID_94_);}
	.st48{clip-path:url(#SVGID_96_);fill:none;stroke:#FFFFFF;stroke-width:2;stroke-miterlimit:10;}
	.st49{clip-path:url(#SVGID_98_);}
	.st50{clip-path:url(#SVGID_100_);fill:#FFFFFF;}
	.st51{clip-path:url(#SVGID_102_);}
	.st52{clip-path:url(#SVGID_104_);fill:none;stroke:#FFFFFF;stroke-width:2;stroke-miterlimit:10;}
	.st53{clip-path:url(#SVGID_106_);}
	.st54{clip-path:url(#SVGID_108_);fill:#FFFFFF;}
	.st55{clip-path:url(#SVGID_110_);}
	.st56{clip-path:url(#SVGID_112_);fill:none;stroke:#FFFFFF;stroke-width:2;stroke-miterlimit:10;}
	.st57{clip-path:url(#SVGID_114_);}
	.st58{clip-path:url(#SVGID_116_);fill:#FFFFFF;}
	.st59{clip-path:url(#SVGID_118_);}
	.st60{clip-path:url(#SVGID_120_);fill:none;stroke:#FFFFFF;stroke-width:2;stroke-miterlimit:10;}
	.st61{clip-path:url(#SVGID_122_);}
	.st62{clip-path:url(#SVGID_124_);fill:#FFFFFF;}
	.st63{clip-path:url(#SVGID_126_);}
	.st64{clip-path:url(#SVGID_128_);fill:none;stroke:#FFFFFF;stroke-width:2;stroke-miterlimit:10;}
	.st65{clip-path:url(#SVGID_130_);}
	.st66{clip-path:url(#SVGID_132_);fill:#FFFFFF;}
	.st67{clip-path:url(#SVGID_134_);}
	.st68{clip-path:url(#SVGID_136_);fill:none;stroke:#FFFFFF;stroke-width:2;stroke-miterlimit:10;}
	.st69{clip-path:url(#SVGID_138_);}
	.st70{clip-path:url(#SVGID_140_);fill:#FFFFFF;}
	.st71{clip-path:url(#SVGID_142_);}
	.st72{clip-path:url(#SVGID_144_);fill:none;stroke:#FFFFFF;stroke-width:2;stroke-miterlimit:10;}
	.st73{fill:#C5213A;}
</style>
<g>
	<defs>
		<rect id="SVGID_1_" x="753" y="-130.4" width="26" height="3"/>
	</defs>
	<clipPath id="SVGID_2_">
		<use xlink:href="#SVGID_1_"  style="overflow:visible;"/>
	</clipPath>
	<g class="st0">
		<defs>
			<rect id="SVGID_3_" x="-567" y="-160.6" width="1440" height="900"/>
		</defs>
		<clipPath id="SVGID_4_">
			<use xlink:href="#SVGID_3_"  style="overflow:visible;"/>
		</clipPath>
	</g>
</g>
<g>
	<defs>
		<rect id="SVGID_5_" x="753" y="-130.4" width="26" height="3"/>
	</defs>
	<clipPath id="SVGID_6_">
		<use xlink:href="#SVGID_5_"  style="overflow:visible;"/>
	</clipPath>
	<g class="st2">
		<defs>
			<rect id="SVGID_7_" x="-567" y="-160.6" width="1440" height="900"/>
		</defs>
		<clipPath id="SVGID_8_">
			<use xlink:href="#SVGID_7_"  style="overflow:visible;"/>
		</clipPath>
	</g>
</g>
<g>
	<defs>
		<rect id="SVGID_9_" x="753" y="-123.5" width="26" height="3"/>
	</defs>
	<clipPath id="SVGID_10_">
		<use xlink:href="#SVGID_9_"  style="overflow:visible;"/>
	</clipPath>
	<g class="st4">
		<defs>
			<rect id="SVGID_11_" x="-567" y="-160.6" width="1440" height="900"/>
		</defs>
		<clipPath id="SVGID_12_">
			<use xlink:href="#SVGID_11_"  style="overflow:visible;"/>
		</clipPath>
	</g>
</g>
<g>
	<defs>
		<rect id="SVGID_13_" x="753" y="-123.5" width="26" height="3"/>
	</defs>
	<clipPath id="SVGID_14_">
		<use xlink:href="#SVGID_13_"  style="overflow:visible;"/>
	</clipPath>
	<g class="st6">
		<defs>
			<rect id="SVGID_15_" x="-567" y="-160.6" width="1440" height="900"/>
		</defs>
		<clipPath id="SVGID_16_">
			<use xlink:href="#SVGID_15_"  style="overflow:visible;"/>
		</clipPath>
	</g>
</g>
<g>
	<defs>
		<rect id="SVGID_17_" x="753" y="-116.9" width="26" height="3"/>
	</defs>
	<clipPath id="SVGID_18_">
		<use xlink:href="#SVGID_17_"  style="overflow:visible;"/>
	</clipPath>
	<g class="st8">
		<defs>
			<rect id="SVGID_19_" x="-567" y="-160.6" width="1440" height="900"/>
		</defs>
		<clipPath id="SVGID_20_">
			<use xlink:href="#SVGID_19_"  style="overflow:visible;"/>
		</clipPath>
	</g>
</g>
<g>
	<defs>
		<rect id="SVGID_21_" x="753" y="-116.9" width="26" height="3"/>
	</defs>
	<clipPath id="SVGID_22_">
		<use xlink:href="#SVGID_21_"  style="overflow:visible;"/>
	</clipPath>
	<g class="st10">
		<defs>
			<rect id="SVGID_23_" x="-567" y="-160.6" width="1440" height="900"/>
		</defs>
		<clipPath id="SVGID_24_">
			<use xlink:href="#SVGID_23_"  style="overflow:visible;"/>
		</clipPath>
	</g>
</g>
<g>
	<defs>
		<rect id="SVGID_25_" x="753" y="-110.9" width="26" height="3"/>
	</defs>
	<clipPath id="SVGID_26_">
		<use xlink:href="#SVGID_25_"  style="overflow:visible;"/>
	</clipPath>
	<g class="st12">
		<defs>
			<rect id="SVGID_27_" x="-567" y="-160.6" width="1440" height="900"/>
		</defs>
		<clipPath id="SVGID_28_">
			<use xlink:href="#SVGID_27_"  style="overflow:visible;"/>
		</clipPath>
	</g>
</g>
<g>
	<defs>
		<rect id="SVGID_29_" x="753" y="-110.9" width="26" height="3"/>
	</defs>
	<clipPath id="SVGID_30_">
		<use xlink:href="#SVGID_29_"  style="overflow:visible;"/>
	</clipPath>
	<g class="st14">
		<defs>
			<rect id="SVGID_31_" x="-567" y="-160.6" width="1440" height="900"/>
		</defs>
		<clipPath id="SVGID_32_">
			<use xlink:href="#SVGID_31_"  style="overflow:visible;"/>
		</clipPath>
	</g>
</g>
<g>
	<defs>
		
			<rect id="SVGID_33_" x="756.5" y="-133.6" transform="matrix(0.7071 -0.7071 0.7071 0.7071 317.0011 500.4163)" width="12.2" height="2.4"/>
	</defs>
	<clipPath id="SVGID_34_">
		<use xlink:href="#SVGID_33_"  style="overflow:visible;"/>
	</clipPath>
	<g class="st16">
		<defs>
			<rect id="SVGID_35_" x="-567" y="-160.6" width="1440" height="900"/>
		</defs>
		<clipPath id="SVGID_36_">
			<use xlink:href="#SVGID_35_"  style="overflow:visible;"/>
		</clipPath>
	</g>
</g>
<g>
	<defs>
		
			<rect id="SVGID_37_" x="756.5" y="-133.6" transform="matrix(0.7071 -0.7071 0.7071 0.7071 317.0011 500.4163)" width="12.2" height="2.4"/>
	</defs>
	<clipPath id="SVGID_38_">
		<use xlink:href="#SVGID_37_"  style="overflow:visible;"/>
	</clipPath>
	<g class="st18">
		<defs>
			<rect id="SVGID_39_" x="-567" y="-160.6" width="1440" height="900"/>
		</defs>
		<clipPath id="SVGID_40_">
			<use xlink:href="#SVGID_39_"  style="overflow:visible;"/>
		</clipPath>
	</g>
</g>
<g>
	<defs>
		
			<rect id="SVGID_41_" x="768.2" y="-137.8" transform="matrix(0.7071 -0.7071 0.7071 0.7071 319.0073 505.2801)" width="2.4" height="10.7"/>
	</defs>
	<clipPath id="SVGID_42_">
		<use xlink:href="#SVGID_41_"  style="overflow:visible;"/>
	</clipPath>
	<g class="st20">
		<defs>
			<rect id="SVGID_43_" x="-567" y="-160.6" width="1440" height="900"/>
		</defs>
		<clipPath id="SVGID_44_">
			<use xlink:href="#SVGID_43_"  style="overflow:visible;"/>
		</clipPath>
	</g>
</g>
<g>
	<defs>
		
			<rect id="SVGID_45_" x="768.2" y="-137.8" transform="matrix(0.7071 -0.7071 0.7071 0.7071 319.0073 505.2801)" width="2.4" height="10.7"/>
	</defs>
	<clipPath id="SVGID_46_">
		<use xlink:href="#SVGID_45_"  style="overflow:visible;"/>
	</clipPath>
	<g class="st22">
		<defs>
			<rect id="SVGID_47_" x="-567" y="-160.6" width="1440" height="900"/>
		</defs>
		<clipPath id="SVGID_48_">
			<use xlink:href="#SVGID_47_"  style="overflow:visible;"/>
		</clipPath>
	</g>
</g>
<g>
	<defs>
		<rect id="SVGID_49_" x="753" y="-130.4" width="26" height="3"/>
	</defs>
	<clipPath id="SVGID_50_">
		<use xlink:href="#SVGID_49_"  style="overflow:visible;"/>
	</clipPath>
	<g class="st25">
		<defs>
			<rect id="SVGID_51_" x="-567" y="-160.6" width="1440" height="900"/>
		</defs>
		<clipPath id="SVGID_52_">
			<use xlink:href="#SVGID_51_"  style="overflow:visible;"/>
		</clipPath>
	</g>
</g>
<g>
	<defs>
		<rect id="SVGID_53_" x="753" y="-130.4" width="26" height="3"/>
	</defs>
	<clipPath id="SVGID_54_">
		<use xlink:href="#SVGID_53_"  style="overflow:visible;"/>
	</clipPath>
	<g class="st27">
		<defs>
			<rect id="SVGID_55_" x="-567" y="-160.6" width="1440" height="900"/>
		</defs>
		<clipPath id="SVGID_56_">
			<use xlink:href="#SVGID_55_"  style="overflow:visible;"/>
		</clipPath>
	</g>
</g>
<g>
	<defs>
		<rect id="SVGID_57_" x="753" y="-123.5" width="26" height="3"/>
	</defs>
	<clipPath id="SVGID_58_">
		<use xlink:href="#SVGID_57_"  style="overflow:visible;"/>
	</clipPath>
	<g class="st29">
		<defs>
			<rect id="SVGID_59_" x="-567" y="-160.6" width="1440" height="900"/>
		</defs>
		<clipPath id="SVGID_60_">
			<use xlink:href="#SVGID_59_"  style="overflow:visible;"/>
		</clipPath>
	</g>
</g>
<g>
	<defs>
		<rect id="SVGID_61_" x="753" y="-123.5" width="26" height="3"/>
	</defs>
	<clipPath id="SVGID_62_">
		<use xlink:href="#SVGID_61_"  style="overflow:visible;"/>
	</clipPath>
	<g class="st31">
		<defs>
			<rect id="SVGID_63_" x="-567" y="-160.6" width="1440" height="900"/>
		</defs>
		<clipPath id="SVGID_64_">
			<use xlink:href="#SVGID_63_"  style="overflow:visible;"/>
		</clipPath>
	</g>
</g>
<g>
	<defs>
		<rect id="SVGID_65_" x="753" y="-116.9" width="26" height="3"/>
	</defs>
	<clipPath id="SVGID_66_">
		<use xlink:href="#SVGID_65_"  style="overflow:visible;"/>
	</clipPath>
	<g class="st33">
		<defs>
			<rect id="SVGID_67_" x="-567" y="-160.6" width="1440" height="900"/>
		</defs>
		<clipPath id="SVGID_68_">
			<use xlink:href="#SVGID_67_"  style="overflow:visible;"/>
		</clipPath>
	</g>
</g>
<g>
	<defs>
		<rect id="SVGID_69_" x="753" y="-116.9" width="26" height="3"/>
	</defs>
	<clipPath id="SVGID_70_">
		<use xlink:href="#SVGID_69_"  style="overflow:visible;"/>
	</clipPath>
	<g class="st35">
		<defs>
			<rect id="SVGID_71_" x="-567" y="-160.6" width="1440" height="900"/>
		</defs>
		<clipPath id="SVGID_72_">
			<use xlink:href="#SVGID_71_"  style="overflow:visible;"/>
		</clipPath>
	</g>
</g>
<g>
	<defs>
		<rect id="SVGID_73_" x="753" y="-110.9" width="26" height="3"/>
	</defs>
	<clipPath id="SVGID_74_">
		<use xlink:href="#SVGID_73_"  style="overflow:visible;"/>
	</clipPath>
	<g class="st37">
		<defs>
			<rect id="SVGID_75_" x="-567" y="-160.6" width="1440" height="900"/>
		</defs>
		<clipPath id="SVGID_76_">
			<use xlink:href="#SVGID_75_"  style="overflow:visible;"/>
		</clipPath>
	</g>
</g>
<g>
	<defs>
		<rect id="SVGID_77_" x="753" y="-110.9" width="26" height="3"/>
	</defs>
	<clipPath id="SVGID_78_">
		<use xlink:href="#SVGID_77_"  style="overflow:visible;"/>
	</clipPath>
	<g class="st39">
		<defs>
			<rect id="SVGID_79_" x="-567" y="-160.6" width="1440" height="900"/>
		</defs>
		<clipPath id="SVGID_80_">
			<use xlink:href="#SVGID_79_"  style="overflow:visible;"/>
		</clipPath>
	</g>
</g>
<g>
	<defs>
		
			<rect id="SVGID_81_" x="756.5" y="-133.6" transform="matrix(0.7071 -0.7071 0.7071 0.7071 317.0011 500.4163)" width="12.2" height="2.4"/>
	</defs>
	<clipPath id="SVGID_82_">
		<use xlink:href="#SVGID_81_"  style="overflow:visible;"/>
	</clipPath>
	<g class="st41">
		<defs>
			<rect id="SVGID_83_" x="-567" y="-160.6" width="1440" height="900"/>
		</defs>
		<clipPath id="SVGID_84_">
			<use xlink:href="#SVGID_83_"  style="overflow:visible;"/>
		</clipPath>
	</g>
</g>
<g>
	<defs>
		
			<rect id="SVGID_85_" x="756.5" y="-133.6" transform="matrix(0.7071 -0.7071 0.7071 0.7071 317.0011 500.4163)" width="12.2" height="2.4"/>
	</defs>
	<clipPath id="SVGID_86_">
		<use xlink:href="#SVGID_85_"  style="overflow:visible;"/>
	</clipPath>
	<g class="st43">
		<defs>
			<rect id="SVGID_87_" x="-567" y="-160.6" width="1440" height="900"/>
		</defs>
		<clipPath id="SVGID_88_">
			<use xlink:href="#SVGID_87_"  style="overflow:visible;"/>
		</clipPath>
	</g>
</g>
<g>
	<defs>
		
			<rect id="SVGID_89_" x="768.2" y="-137.8" transform="matrix(0.7071 -0.7071 0.7071 0.7071 319.0073 505.2801)" width="2.4" height="10.7"/>
	</defs>
	<clipPath id="SVGID_90_">
		<use xlink:href="#SVGID_89_"  style="overflow:visible;"/>
	</clipPath>
	<g class="st45">
		<defs>
			<rect id="SVGID_91_" x="-567" y="-160.6" width="1440" height="900"/>
		</defs>
		<clipPath id="SVGID_92_">
			<use xlink:href="#SVGID_91_"  style="overflow:visible;"/>
		</clipPath>
	</g>
</g>
<g>
	<defs>
		
			<rect id="SVGID_93_" x="768.2" y="-137.8" transform="matrix(0.7071 -0.7071 0.7071 0.7071 319.0073 505.2801)" width="2.4" height="10.7"/>
	</defs>
	<clipPath id="SVGID_94_">
		<use xlink:href="#SVGID_93_"  style="overflow:visible;"/>
	</clipPath>
	<g class="st47">
		<defs>
			<rect id="SVGID_95_" x="-567" y="-160.6" width="1440" height="900"/>
		</defs>
		<clipPath id="SVGID_96_">
			<use xlink:href="#SVGID_95_"  style="overflow:visible;"/>
		</clipPath>
	</g>
</g>
<g>
	<defs>
		<rect id="SVGID_97_" x="753" y="-130.4" width="26" height="3"/>
	</defs>
	<clipPath id="SVGID_98_">
		<use xlink:href="#SVGID_97_"  style="overflow:visible;"/>
	</clipPath>
	<g class="st49">
		<defs>
			<rect id="SVGID_99_" x="-567" y="-160.6" width="1440" height="900"/>
		</defs>
		<clipPath id="SVGID_100_">
			<use xlink:href="#SVGID_99_"  style="overflow:visible;"/>
		</clipPath>
	</g>
</g>
<g>
	<defs>
		<rect id="SVGID_101_" x="753" y="-130.4" width="26" height="3"/>
	</defs>
	<clipPath id="SVGID_102_">
		<use xlink:href="#SVGID_101_"  style="overflow:visible;"/>
	</clipPath>
	<g class="st51">
		<defs>
			<rect id="SVGID_103_" x="-567" y="-160.6" width="1440" height="900"/>
		</defs>
		<clipPath id="SVGID_104_">
			<use xlink:href="#SVGID_103_"  style="overflow:visible;"/>
		</clipPath>
	</g>
</g>
<g>
	<defs>
		<rect id="SVGID_105_" x="753" y="-123.5" width="26" height="3"/>
	</defs>
	<clipPath id="SVGID_106_">
		<use xlink:href="#SVGID_105_"  style="overflow:visible;"/>
	</clipPath>
	<g class="st53">
		<defs>
			<rect id="SVGID_107_" x="-567" y="-160.6" width="1440" height="900"/>
		</defs>
		<clipPath id="SVGID_108_">
			<use xlink:href="#SVGID_107_"  style="overflow:visible;"/>
		</clipPath>
	</g>
</g>
<g>
	<defs>
		<rect id="SVGID_109_" x="753" y="-123.5" width="26" height="3"/>
	</defs>
	<clipPath id="SVGID_110_">
		<use xlink:href="#SVGID_109_"  style="overflow:visible;"/>
	</clipPath>
	<g class="st55">
		<defs>
			<rect id="SVGID_111_" x="-567" y="-160.6" width="1440" height="900"/>
		</defs>
		<clipPath id="SVGID_112_">
			<use xlink:href="#SVGID_111_"  style="overflow:visible;"/>
		</clipPath>
	</g>
</g>
<g>
	<defs>
		<rect id="SVGID_113_" x="753" y="-116.9" width="26" height="3"/>
	</defs>
	<clipPath id="SVGID_114_">
		<use xlink:href="#SVGID_113_"  style="overflow:visible;"/>
	</clipPath>
	<g class="st57">
		<defs>
			<rect id="SVGID_115_" x="-567" y="-160.6" width="1440" height="900"/>
		</defs>
		<clipPath id="SVGID_116_">
			<use xlink:href="#SVGID_115_"  style="overflow:visible;"/>
		</clipPath>
	</g>
</g>
<g>
	<defs>
		<rect id="SVGID_117_" x="753" y="-116.9" width="26" height="3"/>
	</defs>
	<clipPath id="SVGID_118_">
		<use xlink:href="#SVGID_117_"  style="overflow:visible;"/>
	</clipPath>
	<g class="st59">
		<defs>
			<rect id="SVGID_119_" x="-567" y="-160.6" width="1440" height="900"/>
		</defs>
		<clipPath id="SVGID_120_">
			<use xlink:href="#SVGID_119_"  style="overflow:visible;"/>
		</clipPath>
	</g>
</g>
<g>
	<defs>
		<rect id="SVGID_121_" x="753" y="-110.9" width="26" height="3"/>
	</defs>
	<clipPath id="SVGID_122_">
		<use xlink:href="#SVGID_121_"  style="overflow:visible;"/>
	</clipPath>
	<g class="st61">
		<defs>
			<rect id="SVGID_123_" x="-567" y="-160.6" width="1440" height="900"/>
		</defs>
		<clipPath id="SVGID_124_">
			<use xlink:href="#SVGID_123_"  style="overflow:visible;"/>
		</clipPath>
	</g>
</g>
<g>
	<defs>
		<rect id="SVGID_125_" x="753" y="-110.9" width="26" height="3"/>
	</defs>
	<clipPath id="SVGID_126_">
		<use xlink:href="#SVGID_125_"  style="overflow:visible;"/>
	</clipPath>
	<g class="st63">
		<defs>
			<rect id="SVGID_127_" x="-567" y="-160.6" width="1440" height="900"/>
		</defs>
		<clipPath id="SVGID_128_">
			<use xlink:href="#SVGID_127_"  style="overflow:visible;"/>
		</clipPath>
	</g>
</g>
<g>
	<defs>
		
			<rect id="SVGID_129_" x="756.5" y="-133.6" transform="matrix(0.7071 -0.7071 0.7071 0.7071 317.0011 500.4163)" width="12.2" height="2.4"/>
	</defs>
	<clipPath id="SVGID_130_">
		<use xlink:href="#SVGID_129_"  style="overflow:visible;"/>
	</clipPath>
	<g class="st65">
		<defs>
			<rect id="SVGID_131_" x="-567" y="-160.6" width="1440" height="900"/>
		</defs>
		<clipPath id="SVGID_132_">
			<use xlink:href="#SVGID_131_"  style="overflow:visible;"/>
		</clipPath>
	</g>
</g>
<g>
	<defs>
		
			<rect id="SVGID_133_" x="756.5" y="-133.6" transform="matrix(0.7071 -0.7071 0.7071 0.7071 317.0011 500.4163)" width="12.2" height="2.4"/>
	</defs>
	<clipPath id="SVGID_134_">
		<use xlink:href="#SVGID_133_"  style="overflow:visible;"/>
	</clipPath>
	<g class="st67">
		<defs>
			<rect id="SVGID_135_" x="-567" y="-160.6" width="1440" height="900"/>
		</defs>
		<clipPath id="SVGID_136_">
			<use xlink:href="#SVGID_135_"  style="overflow:visible;"/>
		</clipPath>
	</g>
</g>
<g>
	<defs>
		
			<rect id="SVGID_137_" x="768.2" y="-137.8" transform="matrix(0.7071 -0.7071 0.7071 0.7071 319.0073 505.2801)" width="2.4" height="10.7"/>
	</defs>
	<clipPath id="SVGID_138_">
		<use xlink:href="#SVGID_137_"  style="overflow:visible;"/>
	</clipPath>
	<g class="st69">
		<defs>
			<rect id="SVGID_139_" x="-567" y="-160.6" width="1440" height="900"/>
		</defs>
		<clipPath id="SVGID_140_">
			<use xlink:href="#SVGID_139_"  style="overflow:visible;"/>
		</clipPath>
	</g>
</g>
<g>
	<defs>
		
			<rect id="SVGID_141_" x="768.2" y="-137.8" transform="matrix(0.7071 -0.7071 0.7071 0.7071 319.0073 505.2801)" width="2.4" height="10.7"/>
	</defs>
	<clipPath id="SVGID_142_">
		<use xlink:href="#SVGID_141_"  style="overflow:visible;"/>
	</clipPath>
	<g class="st71">
		<defs>
			<rect id="SVGID_143_" x="-567" y="-160.6" width="1440" height="900"/>
		</defs>
		<clipPath id="SVGID_144_">
			<use xlink:href="#SVGID_143_"  style="overflow:visible;"/>
		</clipPath>
	</g>
</g>
<path class="st73" d="M18.4,32.6c-3.6-3.6-7.1-7.1-10.6-10.6C6.8,21,5.7,20,4.5,19c-4.6-3.7-5.7-9.1-2.6-13.4
	c3.3-4.5,9.6-5.5,14.2-2.3c0.7,0.5,1.4,1.1,2.2,1.7c3.2-2.8,6.7-4.3,11-3.1c7.1,2,9.5,10.8,4.3,15.9C29,22.4,24.3,27,19.5,31.6
	C19.3,31.9,18.9,32.1,18.4,32.6z"/>
<g>
	<path class="st24" d="M81.7,16c0,1.1,0,2.1,0,3.2c-9.3,0-18.4,0-27.7,0c0-1.1,0-2.1,0-3.2C63.2,16,72.3,16,81.7,16z"/>
	<path class="st24" d="M81.7,23.1c0,1.1,0,2.1,0,3.2c-9.2,0-18.4,0-27.6,0c0-1,0-2.1,0-3.2C63.3,23.1,72.5,23.1,81.7,23.1z"/>
	<path class="st24" d="M54,32.7c0-1.1,0-2,0-3.1c9.1,0,18.3,0,27.6,0c0,1,0,2,0,3.1C72.4,32.7,63.3,32.7,54,32.7z"/>
	<path class="st24" d="M81.6,8.4c0,1.1,0,2.1,0,3.2c-9.2,0-18.4,0-27.6,0c0-1.1,0-2.1,0-3.2C63.2,8.4,72.3,8.4,81.6,8.4z"/>
	<path class="st24" d="M68,1c0.8,0.8,1.4,1.5,2.2,2.3c-3,2.8-5.9,5.5-8.8,8.3c-0.7-0.8-1.4-1.5-2.2-2.3C62.1,6.5,65,3.7,68,1z"/>
	<path class="st24" d="M76.9,9.2c-0.8,0.8-1.4,1.5-2.2,2.3c-3-2.7-5.9-5.5-8.9-8.2c0.7-0.8,1.4-1.5,2.2-2.3
		C71,3.7,73.9,6.4,76.9,9.2z"/>
</g>
<g>
	<path class="st24" d="M113.9,24.7c-6.4,0-11.6-5.2-11.6-11.6s5.2-11.6,11.6-11.6s11.6,5.2,11.6,11.6S120.3,24.7,113.9,24.7z
		 M113.9,3.8c-5.2,0-9.4,4.2-9.4,9.4s4.2,9.4,9.4,9.4s9.4-4.2,9.4-9.4S119.1,3.8,113.9,3.8z"/>
	
		<rect x="118.1" y="25.1" transform="matrix(0.6413 0.7673 -0.7673 0.6413 65.1202 -86.352)" class="st24" width="13.6" height="2.7"/>
</g>
</svg>
