<?xml version="1.0" encoding="utf-8"?>
<!-- Generator: Adobe Illustrator 21.0.0, SVG Export Plug-In . SVG Version: 6.00 Build 0)  -->
<svg version="1.1" id="Layer_1" xmlns="http://www.w3.org/2000/svg" xmlns:xlink="http://www.w3.org/1999/xlink" x="0px" y="0px"
	 viewBox="0 0 159.3 22.8" style="enable-background:new 0 0 159.3 22.8;" xml:space="preserve">
<style type="text/css">
	.st0{clip-path:url(#SVGID_2_);}
	.st1{clip-path:url(#SVGID_4_);fill:#FFFFFF;}
	.st2{clip-path:url(#SVGID_6_);}
	.st3{clip-path:url(#SVGID_8_);fill:none;stroke:#FFFFFF;stroke-width:2;stroke-miterlimit:10;}
	.st4{clip-path:url(#SVGID_10_);}
	.st5{clip-path:url(#SVGID_12_);fill:#FFFFFF;}
	.st6{clip-path:url(#SVGID_14_);}
	.st7{clip-path:url(#SVGID_16_);fill:none;stroke:#FFFFFF;stroke-width:2;stroke-miterlimit:10;}
	.st8{clip-path:url(#SVGID_18_);}
	.st9{clip-path:url(#SVGID_20_);fill:#FFFFFF;}
	.st10{clip-path:url(#SVGID_22_);}
	.st11{clip-path:url(#SVGID_24_);fill:none;stroke:#FFFFFF;stroke-width:2;stroke-miterlimit:10;}
	.st12{clip-path:url(#SVGID_26_);}
	.st13{clip-path:url(#SVGID_28_);fill:#FFFFFF;}
	.st14{clip-path:url(#SVGID_30_);}
	.st15{clip-path:url(#SVGID_32_);fill:none;stroke:#FFFFFF;stroke-width:2;stroke-miterlimit:10;}
	.st16{clip-path:url(#SVGID_34_);}
	.st17{clip-path:url(#SVGID_36_);fill:#FFFFFF;}
	.st18{clip-path:url(#SVGID_38_);}
	.st19{clip-path:url(#SVGID_40_);fill:none;stroke:#FFFFFF;stroke-width:2;stroke-miterlimit:10;}
	.st20{clip-path:url(#SVGID_42_);}
	.st21{clip-path:url(#SVGID_44_);fill:#FFFFFF;}
	.st22{clip-path:url(#SVGID_46_);}
	.st23{clip-path:url(#SVGID_48_);fill:none;stroke:#FFFFFF;stroke-width:2;stroke-miterlimit:10;}
	.st24{fill:#FFFFFF;}
	.st25{clip-path:url(#SVGID_50_);}
	.st26{clip-path:url(#SVGID_52_);fill:#FFFFFF;}
	.st27{clip-path:url(#SVGID_54_);}
	.st28{clip-path:url(#SVGID_56_);fill:none;stroke:#FFFFFF;stroke-width:2;stroke-miterlimit:10;}
	.st29{clip-path:url(#SVGID_58_);}
	.st30{clip-path:url(#SVGID_60_);fill:#FFFFFF;}
	.st31{clip-path:url(#SVGID_62_);}
	.st32{clip-path:url(#SVGID_64_);fill:none;stroke:#FFFFFF;stroke-width:2;stroke-miterlimit:10;}
	.st33{clip-path:url(#SVGID_66_);}
	.st34{clip-path:url(#SVGID_68_);fill:#FFFFFF;}
	.st35{clip-path:url(#SVGID_70_);}
	.st36{clip-path:url(#SVGID_72_);fill:none;stroke:#FFFFFF;stroke-width:2;stroke-miterlimit:10;}
	.st37{clip-path:url(#SVGID_74_);}
	.st38{clip-path:url(#SVGID_76_);fill:#FFFFFF;}
	.st39{clip-path:url(#SVGID_78_);}
	.st40{clip-path:url(#SVGID_80_);fill:none;stroke:#FFFFFF;stroke-width:2;stroke-miterlimit:10;}
	.st41{clip-path:url(#SVGID_82_);}
	.st42{clip-path:url(#SVGID_84_);fill:#FFFFFF;}
	.st43{clip-path:url(#SVGID_86_);}
	.st44{clip-path:url(#SVGID_88_);fill:none;stroke:#FFFFFF;stroke-width:2;stroke-miterlimit:10;}
	.st45{clip-path:url(#SVGID_90_);}
	.st46{clip-path:url(#SVGID_92_);fill:#FFFFFF;}
	.st47{clip-path:url(#SVGID_94_);}
	.st48{clip-path:url(#SVGID_96_);fill:none;stroke:#FFFFFF;stroke-width:2;stroke-miterlimit:10;}
	.st49{clip-path:url(#SVGID_98_);}
	.st50{clip-path:url(#SVGID_100_);fill:#FFFFFF;}
	.st51{clip-path:url(#SVGID_102_);}
	.st52{clip-path:url(#SVGID_104_);fill:none;stroke:#FFFFFF;stroke-width:2;stroke-miterlimit:10;}
	.st53{clip-path:url(#SVGID_106_);}
	.st54{clip-path:url(#SVGID_108_);fill:#FFFFFF;}
	.st55{clip-path:url(#SVGID_110_);}
	.st56{clip-path:url(#SVGID_112_);fill:none;stroke:#FFFFFF;stroke-width:2;stroke-miterlimit:10;}
	.st57{clip-path:url(#SVGID_114_);}
	.st58{clip-path:url(#SVGID_116_);fill:#FFFFFF;}
	.st59{clip-path:url(#SVGID_118_);}
	.st60{clip-path:url(#SVGID_120_);fill:none;stroke:#FFFFFF;stroke-width:2;stroke-miterlimit:10;}
	.st61{clip-path:url(#SVGID_122_);}
	.st62{clip-path:url(#SVGID_124_);fill:#FFFFFF;}
	.st63{clip-path:url(#SVGID_126_);}
	.st64{clip-path:url(#SVGID_128_);fill:none;stroke:#FFFFFF;stroke-width:2;stroke-miterlimit:10;}
	.st65{clip-path:url(#SVGID_130_);}
	.st66{clip-path:url(#SVGID_132_);fill:#FFFFFF;}
	.st67{clip-path:url(#SVGID_134_);}
	.st68{clip-path:url(#SVGID_136_);fill:none;stroke:#FFFFFF;stroke-width:2;stroke-miterlimit:10;}
	.st69{clip-path:url(#SVGID_138_);}
	.st70{clip-path:url(#SVGID_140_);fill:#FFFFFF;}
	.st71{clip-path:url(#SVGID_142_);}
	.st72{clip-path:url(#SVGID_144_);fill:none;stroke:#FFFFFF;stroke-width:2;stroke-miterlimit:10;}
	.st73{fill:#C5213A;}
</style>
<g>
	<defs>
		<rect id="SVGID_1_" x="768" y="-218.2" width="26" height="3"/>
	</defs>
	<clipPath id="SVGID_2_">
		<use xlink:href="#SVGID_1_"  style="overflow:visible;"/>
	</clipPath>
	<g class="st0">
		<defs>
			<rect id="SVGID_3_" x="-552" y="-248.4" width="1440" height="900"/>
		</defs>
		<clipPath id="SVGID_4_">
			<use xlink:href="#SVGID_3_"  style="overflow:visible;"/>
		</clipPath>
	</g>
</g>
<g>
	<defs>
		<rect id="SVGID_5_" x="768" y="-218.2" width="26" height="3"/>
	</defs>
	<clipPath id="SVGID_6_">
		<use xlink:href="#SVGID_5_"  style="overflow:visible;"/>
	</clipPath>
	<g class="st2">
		<defs>
			<rect id="SVGID_7_" x="-552" y="-248.4" width="1440" height="900"/>
		</defs>
		<clipPath id="SVGID_8_">
			<use xlink:href="#SVGID_7_"  style="overflow:visible;"/>
		</clipPath>
	</g>
</g>
<g>
	<defs>
		<rect id="SVGID_9_" x="768" y="-211.3" width="26" height="3"/>
	</defs>
	<clipPath id="SVGID_10_">
		<use xlink:href="#SVGID_9_"  style="overflow:visible;"/>
	</clipPath>
	<g class="st4">
		<defs>
			<rect id="SVGID_11_" x="-552" y="-248.4" width="1440" height="900"/>
		</defs>
		<clipPath id="SVGID_12_">
			<use xlink:href="#SVGID_11_"  style="overflow:visible;"/>
		</clipPath>
	</g>
</g>
<g>
	<defs>
		<rect id="SVGID_13_" x="768" y="-211.3" width="26" height="3"/>
	</defs>
	<clipPath id="SVGID_14_">
		<use xlink:href="#SVGID_13_"  style="overflow:visible;"/>
	</clipPath>
	<g class="st6">
		<defs>
			<rect id="SVGID_15_" x="-552" y="-248.4" width="1440" height="900"/>
		</defs>
		<clipPath id="SVGID_16_">
			<use xlink:href="#SVGID_15_"  style="overflow:visible;"/>
		</clipPath>
	</g>
</g>
<g>
	<defs>
		<rect id="SVGID_17_" x="768" y="-204.7" width="26" height="3"/>
	</defs>
	<clipPath id="SVGID_18_">
		<use xlink:href="#SVGID_17_"  style="overflow:visible;"/>
	</clipPath>
	<g class="st8">
		<defs>
			<rect id="SVGID_19_" x="-552" y="-248.4" width="1440" height="900"/>
		</defs>
		<clipPath id="SVGID_20_">
			<use xlink:href="#SVGID_19_"  style="overflow:visible;"/>
		</clipPath>
	</g>
</g>
<g>
	<defs>
		<rect id="SVGID_21_" x="768" y="-204.7" width="26" height="3"/>
	</defs>
	<clipPath id="SVGID_22_">
		<use xlink:href="#SVGID_21_"  style="overflow:visible;"/>
	</clipPath>
	<g class="st10">
		<defs>
			<rect id="SVGID_23_" x="-552" y="-248.4" width="1440" height="900"/>
		</defs>
		<clipPath id="SVGID_24_">
			<use xlink:href="#SVGID_23_"  style="overflow:visible;"/>
		</clipPath>
	</g>
</g>
<g>
	<defs>
		<rect id="SVGID_25_" x="768" y="-198.8" width="26" height="3"/>
	</defs>
	<clipPath id="SVGID_26_">
		<use xlink:href="#SVGID_25_"  style="overflow:visible;"/>
	</clipPath>
	<g class="st12">
		<defs>
			<rect id="SVGID_27_" x="-552" y="-248.4" width="1440" height="900"/>
		</defs>
		<clipPath id="SVGID_28_">
			<use xlink:href="#SVGID_27_"  style="overflow:visible;"/>
		</clipPath>
	</g>
</g>
<g>
	<defs>
		<rect id="SVGID_29_" x="768" y="-198.8" width="26" height="3"/>
	</defs>
	<clipPath id="SVGID_30_">
		<use xlink:href="#SVGID_29_"  style="overflow:visible;"/>
	</clipPath>
	<g class="st14">
		<defs>
			<rect id="SVGID_31_" x="-552" y="-248.4" width="1440" height="900"/>
		</defs>
		<clipPath id="SVGID_32_">
			<use xlink:href="#SVGID_31_"  style="overflow:visible;"/>
		</clipPath>
	</g>
</g>
<g>
	<defs>
		
			<rect id="SVGID_33_" x="771.5" y="-221.5" transform="matrix(0.7071 -0.7071 0.7071 0.7071 383.4894 485.3154)" width="12.2" height="2.4"/>
	</defs>
	<clipPath id="SVGID_34_">
		<use xlink:href="#SVGID_33_"  style="overflow:visible;"/>
	</clipPath>
	<g class="st16">
		<defs>
			<rect id="SVGID_35_" x="-552" y="-248.4" width="1440" height="900"/>
		</defs>
		<clipPath id="SVGID_36_">
			<use xlink:href="#SVGID_35_"  style="overflow:visible;"/>
		</clipPath>
	</g>
</g>
<g>
	<defs>
		
			<rect id="SVGID_37_" x="771.5" y="-221.5" transform="matrix(0.7071 -0.7071 0.7071 0.7071 383.4894 485.3154)" width="12.2" height="2.4"/>
	</defs>
	<clipPath id="SVGID_38_">
		<use xlink:href="#SVGID_37_"  style="overflow:visible;"/>
	</clipPath>
	<g class="st18">
		<defs>
			<rect id="SVGID_39_" x="-552" y="-248.4" width="1440" height="900"/>
		</defs>
		<clipPath id="SVGID_40_">
			<use xlink:href="#SVGID_39_"  style="overflow:visible;"/>
		</clipPath>
	</g>
</g>
<g>
	<defs>
		
			<rect id="SVGID_41_" x="783.2" y="-225.6" transform="matrix(0.7071 -0.7071 0.7071 0.7071 385.4956 490.1793)" width="2.4" height="10.7"/>
	</defs>
	<clipPath id="SVGID_42_">
		<use xlink:href="#SVGID_41_"  style="overflow:visible;"/>
	</clipPath>
	<g class="st20">
		<defs>
			<rect id="SVGID_43_" x="-552" y="-248.4" width="1440" height="900"/>
		</defs>
		<clipPath id="SVGID_44_">
			<use xlink:href="#SVGID_43_"  style="overflow:visible;"/>
		</clipPath>
	</g>
</g>
<g>
	<defs>
		
			<rect id="SVGID_45_" x="783.2" y="-225.6" transform="matrix(0.7071 -0.7071 0.7071 0.7071 385.4956 490.1793)" width="2.4" height="10.7"/>
	</defs>
	<clipPath id="SVGID_46_">
		<use xlink:href="#SVGID_45_"  style="overflow:visible;"/>
	</clipPath>
	<g class="st22">
		<defs>
			<rect id="SVGID_47_" x="-552" y="-248.4" width="1440" height="900"/>
		</defs>
		<clipPath id="SVGID_48_">
			<use xlink:href="#SVGID_47_"  style="overflow:visible;"/>
		</clipPath>
	</g>
</g>
<g>
	<path class="st24" d="M3.6,21c-0.8-0.3-1.6-0.6-2.3-1.1l0.7-1.7c0.8,0.4,1.5,0.7,2.2,1c0.7,0.2,1.3,0.3,2,0.3c1.1,0,2-0.3,2.6-0.8
		c0.6-0.6,0.9-1.3,0.9-2.3c0-0.7-0.2-1.3-0.5-1.8s-0.7-1-1.2-1.4c-0.5-0.4-1.1-0.9-1.9-1.4C5.1,11,4.4,10.5,3.9,10
		c-0.5-0.5-1-1-1.4-1.7C2.1,7.6,1.9,6.8,1.9,5.9c0-0.9,0.2-1.8,0.6-2.5C3,2.7,3.6,2.1,4.5,1.7c0.8-0.4,1.8-0.6,2.9-0.6
		c1.3,0,2.6,0.3,3.7,0.9l-0.7,1.7c-0.5-0.2-1-0.4-1.5-0.5s-1-0.2-1.5-0.2c-1,0-1.8,0.3-2.4,0.8c-0.6,0.5-0.9,1.2-0.9,2
		c0,0.6,0.2,1.2,0.5,1.7c0.3,0.5,0.7,0.9,1.1,1.3c0.5,0.4,1.1,0.8,1.9,1.4c0.9,0.6,1.7,1.2,2.2,1.7c0.6,0.5,1.1,1.1,1.4,1.8
		c0.4,0.7,0.6,1.5,0.6,2.5c0,1-0.2,1.9-0.7,2.7c-0.5,0.8-1.2,1.4-2.1,1.9c-0.9,0.4-1.9,0.7-3,0.7C5.2,21.4,4.4,21.2,3.6,21z"/>
	<path class="st24" d="M31.8,19.1V21h-9.4V1.4h9.2v1.9h-7v6.6h6.3v1.8h-6.3v7.4H31.8z"/>
	<path class="st24" d="M51.4,2.7c1.2,1,1.9,2.5,1.9,4.6c0,2.2-0.7,3.9-2.1,5.1c-1.4,1.2-3.4,1.8-6,1.8h-0.7V21h-2.2V1.4
		c0.7-0.1,1.4-0.1,2.1-0.2c0.7,0,1.3-0.1,1.7-0.1C48.3,1.2,50.1,1.7,51.4,2.7z M49.5,11c0.9-0.8,1.4-2,1.4-3.6
		c0-1.5-0.4-2.6-1.2-3.3c-0.8-0.7-2.1-1-3.7-1c-0.5,0-1,0-1.6,0.1v9.1h1C47.2,12.2,48.6,11.8,49.5,11z"/>
	<path class="st24" d="M77.9,1.4V21h-2.2v-8.8H65.3V21h-2.2V1.4h2.2v8.9h10.3V1.4H77.9z"/>
	<path class="st24" d="M92.8,20.2c-1.5-0.8-2.6-2-3.4-3.6c-0.8-1.5-1.2-3.3-1.2-5.4c0-2,0.4-3.8,1.2-5.4c0.8-1.5,1.9-2.7,3.4-3.6
		C94.3,1.4,96,1,97.9,1s3.6,0.4,5.1,1.3s2.6,2,3.4,3.6c0.8,1.5,1.2,3.3,1.2,5.4c0,2-0.4,3.8-1.2,5.4c-0.8,1.5-1.9,2.7-3.4,3.6
		s-3.2,1.3-5.1,1.3S94.3,21,92.8,20.2z M101.8,18.5c1.1-0.7,1.9-1.6,2.5-2.8s0.9-2.7,0.9-4.4c0-1.7-0.3-3.2-0.9-4.4
		c-0.6-1.2-1.4-2.2-2.5-2.9c-1.1-0.7-2.4-1-3.9-1c-1.5,0-2.8,0.3-3.9,1c-1.1,0.7-1.9,1.6-2.5,2.9c-0.6,1.2-0.9,2.7-0.9,4.4
		c0,1.7,0.3,3.2,0.9,4.4s1.4,2.2,2.5,2.8c1.1,0.7,2.4,1,3.9,1C99.4,19.4,100.7,19.1,101.8,18.5z"/>
	<path class="st24" d="M128.3,21.2l-4.5-7.5c-0.7,0.1-1.4,0.2-2.1,0.2h-1.4V21h-2.2V1.4c0.7-0.1,1.4-0.1,2.2-0.2
		c0.8,0,1.4-0.1,1.9-0.1c2.3,0,4,0.5,5.3,1.5c1.2,1,1.9,2.5,1.9,4.5c0,1.3-0.3,2.5-0.9,3.5c-0.6,1-1.4,1.7-2.5,2.3l4.9,8.1
		L128.3,21.2z M121.8,12.1c1.6,0,2.8-0.4,3.7-1.2c0.9-0.8,1.3-2,1.3-3.5c0-2.8-1.6-4.3-4.8-4.3c-0.7,0-1.3,0-1.9,0.1v8.9H121.8z"/>
	<path class="st24" d="M151.9,15.1h-8.8l-2.2,5.9h-2.2l7.6-19.6l2.6-0.1l7.6,19.8h-2.4L151.9,15.1z M151.2,13.3l-3.7-9.9l-3.7,9.9
		H151.2z"/>
</g>
<g>
	<defs>
		<rect id="SVGID_49_" x="768" y="-218.2" width="26" height="3"/>
	</defs>
	<clipPath id="SVGID_50_">
		<use xlink:href="#SVGID_49_"  style="overflow:visible;"/>
	</clipPath>
	<g class="st25">
		<defs>
			<rect id="SVGID_51_" x="-552" y="-248.4" width="1440" height="900"/>
		</defs>
		<clipPath id="SVGID_52_">
			<use xlink:href="#SVGID_51_"  style="overflow:visible;"/>
		</clipPath>
	</g>
</g>
<g>
	<defs>
		<rect id="SVGID_53_" x="768" y="-218.2" width="26" height="3"/>
	</defs>
	<clipPath id="SVGID_54_">
		<use xlink:href="#SVGID_53_"  style="overflow:visible;"/>
	</clipPath>
	<g class="st27">
		<defs>
			<rect id="SVGID_55_" x="-552" y="-248.4" width="1440" height="900"/>
		</defs>
		<clipPath id="SVGID_56_">
			<use xlink:href="#SVGID_55_"  style="overflow:visible;"/>
		</clipPath>
	</g>
</g>
<g>
	<defs>
		<rect id="SVGID_57_" x="768" y="-211.3" width="26" height="3"/>
	</defs>
	<clipPath id="SVGID_58_">
		<use xlink:href="#SVGID_57_"  style="overflow:visible;"/>
	</clipPath>
	<g class="st29">
		<defs>
			<rect id="SVGID_59_" x="-552" y="-248.4" width="1440" height="900"/>
		</defs>
		<clipPath id="SVGID_60_">
			<use xlink:href="#SVGID_59_"  style="overflow:visible;"/>
		</clipPath>
	</g>
</g>
<g>
	<defs>
		<rect id="SVGID_61_" x="768" y="-211.3" width="26" height="3"/>
	</defs>
	<clipPath id="SVGID_62_">
		<use xlink:href="#SVGID_61_"  style="overflow:visible;"/>
	</clipPath>
	<g class="st31">
		<defs>
			<rect id="SVGID_63_" x="-552" y="-248.4" width="1440" height="900"/>
		</defs>
		<clipPath id="SVGID_64_">
			<use xlink:href="#SVGID_63_"  style="overflow:visible;"/>
		</clipPath>
	</g>
</g>
<g>
	<defs>
		<rect id="SVGID_65_" x="768" y="-204.7" width="26" height="3"/>
	</defs>
	<clipPath id="SVGID_66_">
		<use xlink:href="#SVGID_65_"  style="overflow:visible;"/>
	</clipPath>
	<g class="st33">
		<defs>
			<rect id="SVGID_67_" x="-552" y="-248.4" width="1440" height="900"/>
		</defs>
		<clipPath id="SVGID_68_">
			<use xlink:href="#SVGID_67_"  style="overflow:visible;"/>
		</clipPath>
	</g>
</g>
<g>
	<defs>
		<rect id="SVGID_69_" x="768" y="-204.7" width="26" height="3"/>
	</defs>
	<clipPath id="SVGID_70_">
		<use xlink:href="#SVGID_69_"  style="overflow:visible;"/>
	</clipPath>
	<g class="st35">
		<defs>
			<rect id="SVGID_71_" x="-552" y="-248.4" width="1440" height="900"/>
		</defs>
		<clipPath id="SVGID_72_">
			<use xlink:href="#SVGID_71_"  style="overflow:visible;"/>
		</clipPath>
	</g>
</g>
<g>
	<defs>
		<rect id="SVGID_73_" x="768" y="-198.8" width="26" height="3"/>
	</defs>
	<clipPath id="SVGID_74_">
		<use xlink:href="#SVGID_73_"  style="overflow:visible;"/>
	</clipPath>
	<g class="st37">
		<defs>
			<rect id="SVGID_75_" x="-552" y="-248.4" width="1440" height="900"/>
		</defs>
		<clipPath id="SVGID_76_">
			<use xlink:href="#SVGID_75_"  style="overflow:visible;"/>
		</clipPath>
	</g>
</g>
<g>
	<defs>
		<rect id="SVGID_77_" x="768" y="-198.8" width="26" height="3"/>
	</defs>
	<clipPath id="SVGID_78_">
		<use xlink:href="#SVGID_77_"  style="overflow:visible;"/>
	</clipPath>
	<g class="st39">
		<defs>
			<rect id="SVGID_79_" x="-552" y="-248.4" width="1440" height="900"/>
		</defs>
		<clipPath id="SVGID_80_">
			<use xlink:href="#SVGID_79_"  style="overflow:visible;"/>
		</clipPath>
	</g>
</g>
<g>
	<defs>
		
			<rect id="SVGID_81_" x="771.5" y="-221.5" transform="matrix(0.7071 -0.7071 0.7071 0.7071 383.4894 485.3154)" width="12.2" height="2.4"/>
	</defs>
	<clipPath id="SVGID_82_">
		<use xlink:href="#SVGID_81_"  style="overflow:visible;"/>
	</clipPath>
	<g class="st41">
		<defs>
			<rect id="SVGID_83_" x="-552" y="-248.4" width="1440" height="900"/>
		</defs>
		<clipPath id="SVGID_84_">
			<use xlink:href="#SVGID_83_"  style="overflow:visible;"/>
		</clipPath>
	</g>
</g>
<g>
	<defs>
		
			<rect id="SVGID_85_" x="771.5" y="-221.5" transform="matrix(0.7071 -0.7071 0.7071 0.7071 383.4894 485.3154)" width="12.2" height="2.4"/>
	</defs>
	<clipPath id="SVGID_86_">
		<use xlink:href="#SVGID_85_"  style="overflow:visible;"/>
	</clipPath>
	<g class="st43">
		<defs>
			<rect id="SVGID_87_" x="-552" y="-248.4" width="1440" height="900"/>
		</defs>
		<clipPath id="SVGID_88_">
			<use xlink:href="#SVGID_87_"  style="overflow:visible;"/>
		</clipPath>
	</g>
</g>
<g>
	<defs>
		
			<rect id="SVGID_89_" x="783.2" y="-225.6" transform="matrix(0.7071 -0.7071 0.7071 0.7071 385.4956 490.1793)" width="2.4" height="10.7"/>
	</defs>
	<clipPath id="SVGID_90_">
		<use xlink:href="#SVGID_89_"  style="overflow:visible;"/>
	</clipPath>
	<g class="st45">
		<defs>
			<rect id="SVGID_91_" x="-552" y="-248.4" width="1440" height="900"/>
		</defs>
		<clipPath id="SVGID_92_">
			<use xlink:href="#SVGID_91_"  style="overflow:visible;"/>
		</clipPath>
	</g>
</g>
<g>
	<defs>
		
			<rect id="SVGID_93_" x="783.2" y="-225.6" transform="matrix(0.7071 -0.7071 0.7071 0.7071 385.4956 490.1793)" width="2.4" height="10.7"/>
	</defs>
	<clipPath id="SVGID_94_">
		<use xlink:href="#SVGID_93_"  style="overflow:visible;"/>
	</clipPath>
	<g class="st47">
		<defs>
			<rect id="SVGID_95_" x="-552" y="-248.4" width="1440" height="900"/>
		</defs>
		<clipPath id="SVGID_96_">
			<use xlink:href="#SVGID_95_"  style="overflow:visible;"/>
		</clipPath>
	</g>
</g>
<g>
	<defs>
		<rect id="SVGID_97_" x="768" y="-218.2" width="26" height="3"/>
	</defs>
	<clipPath id="SVGID_98_">
		<use xlink:href="#SVGID_97_"  style="overflow:visible;"/>
	</clipPath>
	<g class="st49">
		<defs>
			<rect id="SVGID_99_" x="-552" y="-248.4" width="1440" height="900"/>
		</defs>
		<clipPath id="SVGID_100_">
			<use xlink:href="#SVGID_99_"  style="overflow:visible;"/>
		</clipPath>
	</g>
</g>
<g>
	<defs>
		<rect id="SVGID_101_" x="768" y="-218.2" width="26" height="3"/>
	</defs>
	<clipPath id="SVGID_102_">
		<use xlink:href="#SVGID_101_"  style="overflow:visible;"/>
	</clipPath>
	<g class="st51">
		<defs>
			<rect id="SVGID_103_" x="-552" y="-248.4" width="1440" height="900"/>
		</defs>
		<clipPath id="SVGID_104_">
			<use xlink:href="#SVGID_103_"  style="overflow:visible;"/>
		</clipPath>
	</g>
</g>
<g>
	<defs>
		<rect id="SVGID_105_" x="768" y="-211.3" width="26" height="3"/>
	</defs>
	<clipPath id="SVGID_106_">
		<use xlink:href="#SVGID_105_"  style="overflow:visible;"/>
	</clipPath>
	<g class="st53">
		<defs>
			<rect id="SVGID_107_" x="-552" y="-248.4" width="1440" height="900"/>
		</defs>
		<clipPath id="SVGID_108_">
			<use xlink:href="#SVGID_107_"  style="overflow:visible;"/>
		</clipPath>
	</g>
</g>
<g>
	<defs>
		<rect id="SVGID_109_" x="768" y="-211.3" width="26" height="3"/>
	</defs>
	<clipPath id="SVGID_110_">
		<use xlink:href="#SVGID_109_"  style="overflow:visible;"/>
	</clipPath>
	<g class="st55">
		<defs>
			<rect id="SVGID_111_" x="-552" y="-248.4" width="1440" height="900"/>
		</defs>
		<clipPath id="SVGID_112_">
			<use xlink:href="#SVGID_111_"  style="overflow:visible;"/>
		</clipPath>
	</g>
</g>
<g>
	<defs>
		<rect id="SVGID_113_" x="768" y="-204.7" width="26" height="3"/>
	</defs>
	<clipPath id="SVGID_114_">
		<use xlink:href="#SVGID_113_"  style="overflow:visible;"/>
	</clipPath>
	<g class="st57">
		<defs>
			<rect id="SVGID_115_" x="-552" y="-248.4" width="1440" height="900"/>
		</defs>
		<clipPath id="SVGID_116_">
			<use xlink:href="#SVGID_115_"  style="overflow:visible;"/>
		</clipPath>
	</g>
</g>
<g>
	<defs>
		<rect id="SVGID_117_" x="768" y="-204.7" width="26" height="3"/>
	</defs>
	<clipPath id="SVGID_118_">
		<use xlink:href="#SVGID_117_"  style="overflow:visible;"/>
	</clipPath>
	<g class="st59">
		<defs>
			<rect id="SVGID_119_" x="-552" y="-248.4" width="1440" height="900"/>
		</defs>
		<clipPath id="SVGID_120_">
			<use xlink:href="#SVGID_119_"  style="overflow:visible;"/>
		</clipPath>
	</g>
</g>
<g>
	<defs>
		<rect id="SVGID_121_" x="768" y="-198.8" width="26" height="3"/>
	</defs>
	<clipPath id="SVGID_122_">
		<use xlink:href="#SVGID_121_"  style="overflow:visible;"/>
	</clipPath>
	<g class="st61">
		<defs>
			<rect id="SVGID_123_" x="-552" y="-248.4" width="1440" height="900"/>
		</defs>
		<clipPath id="SVGID_124_">
			<use xlink:href="#SVGID_123_"  style="overflow:visible;"/>
		</clipPath>
	</g>
</g>
<g>
	<defs>
		<rect id="SVGID_125_" x="768" y="-198.8" width="26" height="3"/>
	</defs>
	<clipPath id="SVGID_126_">
		<use xlink:href="#SVGID_125_"  style="overflow:visible;"/>
	</clipPath>
	<g class="st63">
		<defs>
			<rect id="SVGID_127_" x="-552" y="-248.4" width="1440" height="900"/>
		</defs>
		<clipPath id="SVGID_128_">
			<use xlink:href="#SVGID_127_"  style="overflow:visible;"/>
		</clipPath>
	</g>
</g>
<g>
	<defs>
		
			<rect id="SVGID_129_" x="771.5" y="-221.5" transform="matrix(0.7071 -0.7071 0.7071 0.7071 383.4894 485.3154)" width="12.2" height="2.4"/>
	</defs>
	<clipPath id="SVGID_130_">
		<use xlink:href="#SVGID_129_"  style="overflow:visible;"/>
	</clipPath>
	<g class="st65">
		<defs>
			<rect id="SVGID_131_" x="-552" y="-248.4" width="1440" height="900"/>
		</defs>
		<clipPath id="SVGID_132_">
			<use xlink:href="#SVGID_131_"  style="overflow:visible;"/>
		</clipPath>
	</g>
</g>
<g>
	<defs>
		
			<rect id="SVGID_133_" x="771.5" y="-221.5" transform="matrix(0.7071 -0.7071 0.7071 0.7071 383.4894 485.3154)" width="12.2" height="2.4"/>
	</defs>
	<clipPath id="SVGID_134_">
		<use xlink:href="#SVGID_133_"  style="overflow:visible;"/>
	</clipPath>
	<g class="st67">
		<defs>
			<rect id="SVGID_135_" x="-552" y="-248.4" width="1440" height="900"/>
		</defs>
		<clipPath id="SVGID_136_">
			<use xlink:href="#SVGID_135_"  style="overflow:visible;"/>
		</clipPath>
	</g>
</g>
<g>
	<defs>
		
			<rect id="SVGID_137_" x="783.2" y="-225.6" transform="matrix(0.7071 -0.7071 0.7071 0.7071 385.4956 490.1793)" width="2.4" height="10.7"/>
	</defs>
	<clipPath id="SVGID_138_">
		<use xlink:href="#SVGID_137_"  style="overflow:visible;"/>
	</clipPath>
	<g class="st69">
		<defs>
			<rect id="SVGID_139_" x="-552" y="-248.4" width="1440" height="900"/>
		</defs>
		<clipPath id="SVGID_140_">
			<use xlink:href="#SVGID_139_"  style="overflow:visible;"/>
		</clipPath>
	</g>
</g>
<g>
	<defs>
		
			<rect id="SVGID_141_" x="783.2" y="-225.6" transform="matrix(0.7071 -0.7071 0.7071 0.7071 385.4956 490.1793)" width="2.4" height="10.7"/>
	</defs>
	<clipPath id="SVGID_142_">
		<use xlink:href="#SVGID_141_"  style="overflow:visible;"/>
	</clipPath>
	<g class="st71">
		<defs>
			<rect id="SVGID_143_" x="-552" y="-248.4" width="1440" height="900"/>
		</defs>
		<clipPath id="SVGID_144_">
			<use xlink:href="#SVGID_143_"  style="overflow:visible;"/>
		</clipPath>
	</g>
</g>
</svg>
